<mxfile host="65bd71144e">
    <diagram id="4KvboamwhF-MVaGZLJqi" name="Page-1">
        <mxGraphModel dx="2811" dy="3680" grid="1" gridSize="10" guides="1" tooltips="1" connect="1" arrows="1" fold="1" page="1" pageScale="1" pageWidth="827" pageHeight="1169" math="0" shadow="0">
            <root>
                <mxCell id="0"/>
                <mxCell id="1" parent="0"/>
                <mxCell id="5" value="&lt;div style=&quot;font-size: 13px&quot; align=&quot;left&quot;&gt;&lt;u&gt;Executor&lt;/u&gt;&lt;/div&gt;" style="rounded=0;whiteSpace=wrap;html=1;align=left;verticalAlign=top;fontStyle=1;fontSize=13;" parent="1" vertex="1">
                    <mxGeometry x="40" y="730" width="910" height="210" as="geometry"/>
                </mxCell>
                <mxCell id="9acBPp0Nrx-jCgAz3xqB-44" value="&lt;div&gt;&lt;u&gt;NF/Docker host(s)&lt;/u&gt;&lt;/div&gt;" style="rounded=0;whiteSpace=wrap;html=1;align=left;verticalAlign=top;fontStyle=1;fontSize=13;" parent="1" vertex="1">
                    <mxGeometry x="40" y="529.5" width="910" height="200.5" as="geometry"/>
                </mxCell>
                <mxCell id="9acBPp0Nrx-jCgAz3xqB-43" value="&lt;div style=&quot;font-size: 13px&quot; align=&quot;left&quot;&gt;&lt;u&gt;Webserver or separate host(s)&lt;/u&gt;&lt;/div&gt;&lt;div style=&quot;font-size: 13px&quot; align=&quot;left&quot;&gt;&lt;span style=&quot;font-weight: normal&quot;&gt;depends on the workload&lt;/span&gt; &lt;br&gt;&lt;/div&gt;" style="rounded=0;whiteSpace=wrap;html=1;align=left;verticalAlign=top;fontStyle=1;fontSize=13;" parent="1" vertex="1">
                    <mxGeometry x="40" y="410" width="910" height="120" as="geometry"/>
                </mxCell>
                <mxCell id="9acBPp0Nrx-jCgAz3xqB-42" value="&lt;div style=&quot;font-size: 13px&quot; align=&quot;left&quot;&gt;&lt;u&gt;Webserver&lt;/u&gt;&lt;/div&gt;" style="rounded=0;whiteSpace=wrap;html=1;align=left;verticalAlign=top;fontStyle=1;fontSize=13;" parent="1" vertex="1">
                    <mxGeometry x="40" y="120" width="910" height="290" as="geometry"/>
                </mxCell>
                <mxCell id="9acBPp0Nrx-jCgAz3xqB-1" value="Website" style="rounded=0;whiteSpace=wrap;html=1;" parent="1" vertex="1">
                    <mxGeometry x="400" y="150" width="116" height="60" as="geometry"/>
                </mxCell>
                <mxCell id="9acBPp0Nrx-jCgAz3xqB-4" value="Web API" style="rounded=0;whiteSpace=wrap;html=1;" parent="1" vertex="1">
                    <mxGeometry x="400" y="330" width="120" height="60" as="geometry"/>
                </mxCell>
                <mxCell id="9acBPp0Nrx-jCgAz3xqB-6" value="RabbitMQ" style="rounded=0;whiteSpace=wrap;html=1;" parent="1" vertex="1">
                    <mxGeometry x="560" y="450" width="120" height="60" as="geometry"/>
                </mxCell>
                <mxCell id="9acBPp0Nrx-jCgAz3xqB-8" value="PostgreSQL" style="rounded=0;whiteSpace=wrap;html=1;" parent="1" vertex="1">
                    <mxGeometry x="240" y="450" width="120" height="60" as="geometry"/>
                </mxCell>
                <mxCell id="9acBPp0Nrx-jCgAz3xqB-10" value="" style="endArrow=classic;startArrow=classic;html=1;exitX=0.5;exitY=0;exitDx=0;exitDy=0;entryX=0.25;entryY=1;entryDx=0;entryDy=0;fillColor=#6a00ff;strokeColor=#3700CC;strokeWidth=2;" parent="1" source="9acBPp0Nrx-jCgAz3xqB-8" target="9acBPp0Nrx-jCgAz3xqB-4" edge="1">
                    <mxGeometry width="50" height="50" relative="1" as="geometry">
                        <mxPoint x="510" y="560" as="sourcePoint"/>
                        <mxPoint x="560" y="510" as="targetPoint"/>
                    </mxGeometry>
                </mxCell>
                <mxCell id="9acBPp0Nrx-jCgAz3xqB-11" value="" style="endArrow=classic;startArrow=classic;html=1;entryX=0.5;entryY=1;entryDx=0;entryDy=0;strokeColor=#B09500;strokeWidth=2;" parent="1" source="9acBPp0Nrx-jCgAz3xqB-12" target="9acBPp0Nrx-jCgAz3xqB-4" edge="1">
                    <mxGeometry width="50" height="50" relative="1" as="geometry">
                        <mxPoint x="660" y="490" as="sourcePoint"/>
                        <mxPoint x="500" y="390" as="targetPoint"/>
                    </mxGeometry>
                </mxCell>
                <mxCell id="9acBPp0Nrx-jCgAz3xqB-12" value="&lt;div&gt;Network-Filestorage&lt;/div&gt;&lt;div&gt;(Most probably NFS, maybe GlusterFS)&lt;br&gt;&lt;/div&gt;" style="rounded=0;whiteSpace=wrap;html=1;" parent="1" vertex="1">
                    <mxGeometry x="400" y="450" width="120" height="60" as="geometry"/>
                </mxCell>
                <mxCell id="9acBPp0Nrx-jCgAz3xqB-13" value="" style="endArrow=none;startArrow=classic;html=1;entryX=0.75;entryY=1;entryDx=0;entryDy=0;exitX=0.5;exitY=0;exitDx=0;exitDy=0;startFill=1;endFill=0;fillColor=#008a00;strokeWidth=2;strokeColor=#2D7600;" parent="1" source="9acBPp0Nrx-jCgAz3xqB-6" target="9acBPp0Nrx-jCgAz3xqB-4" edge="1">
                    <mxGeometry width="50" height="50" relative="1" as="geometry">
                        <mxPoint x="483.0769230769231" y="500" as="sourcePoint"/>
                        <mxPoint x="480" y="400" as="targetPoint"/>
                    </mxGeometry>
                </mxCell>
                <mxCell id="9acBPp0Nrx-jCgAz3xqB-14" value="" style="endArrow=classic;startArrow=classic;html=1;entryX=0.5;entryY=1;entryDx=0;entryDy=0;exitX=0.5;exitY=0;exitDx=0;exitDy=0;strokeWidth=2;" parent="1" source="9acBPp0Nrx-jCgAz3xqB-4" target="9acBPp0Nrx-jCgAz3xqB-1" edge="1">
                    <mxGeometry width="50" height="50" relative="1" as="geometry">
                        <mxPoint x="440" y="300" as="sourcePoint"/>
                        <mxPoint x="490" y="250" as="targetPoint"/>
                    </mxGeometry>
                </mxCell>
                <mxCell id="9acBPp0Nrx-jCgAz3xqB-15" value="#1" style="rounded=0;whiteSpace=wrap;html=1;fontStyle=1" parent="1" vertex="1">
                    <mxGeometry x="160" y="650" width="120" height="60" as="geometry"/>
                </mxCell>
                <mxCell id="9acBPp0Nrx-jCgAz3xqB-16" value="#2" style="rounded=0;whiteSpace=wrap;html=1;fontStyle=1" parent="1" vertex="1">
                    <mxGeometry x="320" y="650" width="120" height="60" as="geometry"/>
                </mxCell>
                <mxCell id="9acBPp0Nrx-jCgAz3xqB-17" value="#N" style="rounded=0;whiteSpace=wrap;html=1;fontStyle=1" parent="1" vertex="1">
                    <mxGeometry x="640" y="650" width="120" height="60" as="geometry"/>
                </mxCell>
                <mxCell id="9acBPp0Nrx-jCgAz3xqB-19" value="" style="endArrow=classic;html=1;entryX=0.25;entryY=0;entryDx=0;entryDy=0;exitX=0.5;exitY=1;exitDx=0;exitDy=0;sketch=0;strokeWidth=2;fillColor=#60a917;strokeColor=#2D7600;" parent="1" source="9acBPp0Nrx-jCgAz3xqB-6" target="9acBPp0Nrx-jCgAz3xqB-15" edge="1">
                    <mxGeometry width="50" height="50" relative="1" as="geometry">
                        <mxPoint x="510" y="560" as="sourcePoint"/>
                        <mxPoint x="560" y="510" as="targetPoint"/>
                    </mxGeometry>
                </mxCell>
                <mxCell id="9acBPp0Nrx-jCgAz3xqB-22" value="" style="endArrow=classic;html=1;entryX=0.25;entryY=0;entryDx=0;entryDy=0;exitX=0.5;exitY=1;exitDx=0;exitDy=0;sketch=0;strokeWidth=2;fillColor=#60a917;strokeColor=#2D7600;" parent="1" source="9acBPp0Nrx-jCgAz3xqB-6" target="9acBPp0Nrx-jCgAz3xqB-16" edge="1">
                    <mxGeometry width="50" height="50" relative="1" as="geometry">
                        <mxPoint x="600" y="520" as="sourcePoint"/>
                        <mxPoint x="230" y="660" as="targetPoint"/>
                    </mxGeometry>
                </mxCell>
                <mxCell id="9acBPp0Nrx-jCgAz3xqB-23" value="" style="endArrow=classic;html=1;entryX=0.25;entryY=0;entryDx=0;entryDy=0;exitX=0.5;exitY=1;exitDx=0;exitDy=0;sketch=0;strokeWidth=2;fillColor=#60a917;strokeColor=#2D7600;" parent="1" source="9acBPp0Nrx-jCgAz3xqB-6" target="9acBPp0Nrx-jCgAz3xqB-17" edge="1">
                    <mxGeometry width="50" height="50" relative="1" as="geometry">
                        <mxPoint x="610" y="530" as="sourcePoint"/>
                        <mxPoint x="240" y="670" as="targetPoint"/>
                    </mxGeometry>
                </mxCell>
                <mxCell id="9acBPp0Nrx-jCgAz3xqB-25" value="&lt;font size=&quot;1&quot;&gt;&lt;b&gt;&lt;font style=&quot;font-size: 20px&quot;&gt;...&lt;/font&gt;&lt;/b&gt;&lt;/font&gt;" style="text;html=1;strokeColor=none;fillColor=none;align=center;verticalAlign=middle;whiteSpace=wrap;rounded=0;" parent="1" vertex="1">
                    <mxGeometry x="520" y="670" width="40" height="20" as="geometry"/>
                </mxCell>
                <mxCell id="9acBPp0Nrx-jCgAz3xqB-33" value="" style="endArrow=none;html=1;exitX=0.5;exitY=1;exitDx=0;exitDy=0;sketch=0;strokeWidth=2;fillColor=#6a00ff;strokeColor=#3700CC;startArrow=classic;startFill=1;endFill=0;" parent="1" source="9acBPp0Nrx-jCgAz3xqB-8" target="9acBPp0Nrx-jCgAz3xqB-15" edge="1">
                    <mxGeometry width="50" height="50" relative="1" as="geometry">
                        <mxPoint x="600" y="520" as="sourcePoint"/>
                        <mxPoint x="200" y="660" as="targetPoint"/>
                    </mxGeometry>
                </mxCell>
                <mxCell id="9acBPp0Nrx-jCgAz3xqB-34" value="" style="endArrow=none;html=1;sketch=0;strokeWidth=2;fillColor=#6a00ff;strokeColor=#3700CC;entryX=0.5;entryY=0;entryDx=0;entryDy=0;startArrow=classic;startFill=1;endFill=0;" parent="1" target="9acBPp0Nrx-jCgAz3xqB-16" edge="1">
                    <mxGeometry width="50" height="50" relative="1" as="geometry">
                        <mxPoint x="300" y="510" as="sourcePoint"/>
                        <mxPoint x="244.11764705882342" y="660" as="targetPoint"/>
                    </mxGeometry>
                </mxCell>
                <mxCell id="9acBPp0Nrx-jCgAz3xqB-36" value="" style="endArrow=none;html=1;sketch=0;strokeWidth=2;fillColor=#6a00ff;strokeColor=#3700CC;entryX=0.5;entryY=0;entryDx=0;entryDy=0;exitX=0.5;exitY=1;exitDx=0;exitDy=0;startArrow=classic;startFill=1;endFill=0;" parent="1" source="9acBPp0Nrx-jCgAz3xqB-8" target="9acBPp0Nrx-jCgAz3xqB-17" edge="1">
                    <mxGeometry width="50" height="50" relative="1" as="geometry">
                        <mxPoint x="310" y="520" as="sourcePoint"/>
                        <mxPoint x="390" y="660" as="targetPoint"/>
                    </mxGeometry>
                </mxCell>
                <mxCell id="9acBPp0Nrx-jCgAz3xqB-37" value="" style="endArrow=classic;startArrow=classic;html=1;strokeColor=#B09500;strokeWidth=2;entryX=0.5;entryY=1;entryDx=0;entryDy=0;exitX=0.75;exitY=0;exitDx=0;exitDy=0;fillColor=#e3c800;" parent="1" source="9acBPp0Nrx-jCgAz3xqB-15" target="9acBPp0Nrx-jCgAz3xqB-12" edge="1">
                    <mxGeometry width="50" height="50" relative="1" as="geometry">
                        <mxPoint x="510" y="540" as="sourcePoint"/>
                        <mxPoint x="560" y="490" as="targetPoint"/>
                    </mxGeometry>
                </mxCell>
                <mxCell id="9acBPp0Nrx-jCgAz3xqB-38" value="" style="endArrow=classic;startArrow=classic;html=1;strokeColor=#B09500;strokeWidth=2;exitX=0.75;exitY=0;exitDx=0;exitDy=0;fillColor=#e3c800;" parent="1" source="9acBPp0Nrx-jCgAz3xqB-16" edge="1">
                    <mxGeometry width="50" height="50" relative="1" as="geometry">
                        <mxPoint x="260" y="660" as="sourcePoint"/>
                        <mxPoint x="460" y="510" as="targetPoint"/>
                    </mxGeometry>
                </mxCell>
                <mxCell id="9acBPp0Nrx-jCgAz3xqB-39" value="" style="endArrow=classic;startArrow=classic;html=1;strokeColor=#B09500;strokeWidth=2;entryX=0.5;entryY=1;entryDx=0;entryDy=0;fillColor=#e3c800;" parent="1" target="9acBPp0Nrx-jCgAz3xqB-12" edge="1">
                    <mxGeometry width="50" height="50" relative="1" as="geometry">
                        <mxPoint x="730" y="650" as="sourcePoint"/>
                        <mxPoint x="470" y="520" as="targetPoint"/>
                    </mxGeometry>
                </mxCell>
                <mxCell id="9acBPp0Nrx-jCgAz3xqB-49" value="" style="group" parent="1" vertex="1" connectable="0">
                    <mxGeometry x="1380" y="480" width="320" height="460" as="geometry"/>
                </mxCell>
                <mxCell id="9acBPp0Nrx-jCgAz3xqB-45" value="&lt;b&gt;Dataflow&lt;/b&gt;" style="rounded=0;whiteSpace=wrap;html=1;fontSize=13;verticalAlign=top;align=left;fontStyle=4" parent="9acBPp0Nrx-jCgAz3xqB-49" vertex="1">
                    <mxGeometry width="320" height="460" as="geometry"/>
                </mxCell>
                <mxCell id="9acBPp0Nrx-jCgAz3xqB-26" value="" style="endArrow=none;html=1;exitX=0.25;exitY=1;exitDx=0;exitDy=0;sketch=0;strokeWidth=2;fillColor=#60a917;strokeColor=#2D7600;endFill=0;" parent="9acBPp0Nrx-jCgAz3xqB-49" edge="1">
                    <mxGeometry width="50" height="50" relative="1" as="geometry">
                        <mxPoint x="79.68379446640317" y="160.88117647058823" as="sourcePoint"/>
                        <mxPoint x="168.2213438735178" y="160.88117647058823" as="targetPoint"/>
                        <Array as="points">
                            <mxPoint x="130.27667984189722" y="160.88117647058823"/>
                        </Array>
                    </mxGeometry>
                </mxCell>
                <mxCell id="9acBPp0Nrx-jCgAz3xqB-29" value="Message (=Workflow) Queue" style="text;html=1;strokeColor=none;fillColor=none;align=center;verticalAlign=middle;whiteSpace=wrap;rounded=0;" parent="9acBPp0Nrx-jCgAz3xqB-49" vertex="1">
                    <mxGeometry x="209.9995652173913" y="140.00235294117647" width="50.59288537549408" height="54.11764705882353" as="geometry"/>
                </mxCell>
                <mxCell id="9acBPp0Nrx-jCgAz3xqB-31" value="" style="endArrow=none;html=1;exitX=0.25;exitY=1;exitDx=0;exitDy=0;sketch=0;strokeWidth=2;fillColor=#6a00ff;strokeColor=#3700CC;endFill=0;" parent="9acBPp0Nrx-jCgAz3xqB-49" edge="1">
                    <mxGeometry width="50" height="50" relative="1" as="geometry">
                        <mxPoint x="79.68379446640317" y="223.8164705882353" as="sourcePoint"/>
                        <mxPoint x="168.2213438735178" y="223.8164705882353" as="targetPoint"/>
                        <Array as="points">
                            <mxPoint x="130.27667984189722" y="223.8164705882353"/>
                        </Array>
                    </mxGeometry>
                </mxCell>
                <mxCell id="9acBPp0Nrx-jCgAz3xqB-32" value="Status Updates" style="text;html=1;strokeColor=none;fillColor=none;align=center;verticalAlign=middle;whiteSpace=wrap;rounded=0;" parent="9acBPp0Nrx-jCgAz3xqB-49" vertex="1">
                    <mxGeometry x="209.9995652173913" y="202.93764705882347" width="50.59288537549408" height="54.11764705882353" as="geometry"/>
                </mxCell>
                <mxCell id="9acBPp0Nrx-jCgAz3xqB-40" value="" style="endArrow=none;html=1;exitX=0.25;exitY=1;exitDx=0;exitDy=0;sketch=0;strokeWidth=2;fillColor=#e3c800;strokeColor=#B09500;endFill=0;" parent="9acBPp0Nrx-jCgAz3xqB-49" edge="1">
                    <mxGeometry width="50" height="50" relative="1" as="geometry">
                        <mxPoint x="79.68379446640317" y="280.8817647058823" as="sourcePoint"/>
                        <mxPoint x="168.2213438735178" y="280.8817647058823" as="targetPoint"/>
                        <Array as="points">
                            <mxPoint x="130.27667984189722" y="280.8817647058823"/>
                        </Array>
                    </mxGeometry>
                </mxCell>
                <mxCell id="9acBPp0Nrx-jCgAz3xqB-41" value="Nextflow I/O" style="text;html=1;strokeColor=none;fillColor=none;align=center;verticalAlign=middle;whiteSpace=wrap;rounded=0;" parent="9acBPp0Nrx-jCgAz3xqB-49" vertex="1">
                    <mxGeometry x="209.9995652173913" y="257.0529411764706" width="50.59288537549408" height="54.11764705882353" as="geometry"/>
                </mxCell>
                <mxCell id="9acBPp0Nrx-jCgAz3xqB-55" value="" style="endArrow=none;html=1;exitX=0.25;exitY=1;exitDx=0;exitDy=0;sketch=0;strokeWidth=2;fillColor=#60a917;endFill=0;" parent="9acBPp0Nrx-jCgAz3xqB-49" edge="1">
                    <mxGeometry width="50" height="50" relative="1" as="geometry">
                        <mxPoint x="79.68379446640317" y="98.31529411764706" as="sourcePoint"/>
                        <mxPoint x="168.2213438735178" y="98.31529411764706" as="targetPoint"/>
                        <Array as="points">
                            <mxPoint x="130.27667984189722" y="98.31529411764706"/>
                        </Array>
                    </mxGeometry>
                </mxCell>
                <mxCell id="9acBPp0Nrx-jCgAz3xqB-56" value="&lt;div&gt;HTTP/Websockets-requests&lt;/div&gt;" style="text;html=1;strokeColor=none;fillColor=none;align=center;verticalAlign=middle;whiteSpace=wrap;rounded=0;" parent="9acBPp0Nrx-jCgAz3xqB-49" vertex="1">
                    <mxGeometry x="209.9995652173913" y="77.43647058823531" width="50.59288537549408" height="54.11764705882353" as="geometry"/>
                </mxCell>
                <mxCell id="16" value="" style="endArrow=none;html=1;exitX=0.25;exitY=1;exitDx=0;exitDy=0;sketch=0;strokeWidth=2;fillColor=#d80073;endFill=0;strokeColor=#A50040;" parent="9acBPp0Nrx-jCgAz3xqB-49" edge="1">
                    <mxGeometry width="50" height="50" relative="1" as="geometry">
                        <mxPoint x="79.68379446640317" y="334.9952941176471" as="sourcePoint"/>
                        <mxPoint x="168.2213438735178" y="334.9952941176471" as="targetPoint"/>
                        <Array as="points">
                            <mxPoint x="130.27667984189722" y="334.9952941176471"/>
                        </Array>
                    </mxGeometry>
                </mxCell>
                <mxCell id="17" value="&lt;div&gt;Nextflow Executor&lt;/div&gt;" style="text;html=1;strokeColor=none;fillColor=none;align=center;verticalAlign=middle;whiteSpace=wrap;rounded=0;" parent="9acBPp0Nrx-jCgAz3xqB-49" vertex="1">
                    <mxGeometry x="209.9995652173913" y="311.1664705882354" width="50.59288537549408" height="54.11764705882353" as="geometry"/>
                </mxCell>
                <mxCell id="9acBPp0Nrx-jCgAz3xqB-50" value="&lt;div&gt;&lt;b&gt;Task&lt;/b&gt;&lt;br&gt;&lt;/div&gt;" style="rounded=0;whiteSpace=wrap;html=1;fontSize=13;align=center;verticalAlign=top;" parent="1" vertex="1">
                    <mxGeometry x="950" y="120" width="213" height="30" as="geometry"/>
                </mxCell>
                <mxCell id="9acBPp0Nrx-jCgAz3xqB-51" value="* Web interface and API for Users to schedule workflows" style="rounded=0;whiteSpace=wrap;html=1;fontSize=13;align=left;verticalAlign=top;fontStyle=0" parent="1" vertex="1">
                    <mxGeometry x="950" y="150" width="213" height="260" as="geometry"/>
                </mxCell>
                <mxCell id="9acBPp0Nrx-jCgAz3xqB-52" value="* Datastorage&lt;br&gt;&lt;span style=&quot;white-space: pre&quot;&gt;&#9;&lt;/span&gt;* Files&lt;br&gt;&lt;span style=&quot;white-space: pre&quot;&gt;&#9;&lt;/span&gt;* Database&lt;br&gt;* Job/workflow queuing&lt;br&gt;&lt;span style=&quot;white-space: pre&quot;&gt;&#9;&lt;/span&gt;* Separate queue for each Nextflow Executor" style="rounded=0;whiteSpace=wrap;html=1;fontSize=13;align=left;verticalAlign=top;fontStyle=0" parent="1" vertex="1">
                    <mxGeometry x="950" y="410" width="213" height="120" as="geometry"/>
                </mxCell>
                <mxCell id="9acBPp0Nrx-jCgAz3xqB-53" value="&lt;div&gt;* Processing scheduled jobs/workflows&lt;/div&gt;" style="rounded=0;whiteSpace=wrap;html=1;fontSize=13;align=left;verticalAlign=top;fontStyle=0" parent="1" vertex="1">
                    <mxGeometry x="950" y="530" width="213" height="200" as="geometry"/>
                </mxCell>
                <mxCell id="2" value="" style="shape=image;verticalLabelPosition=bottom;labelBackgroundColor=#ffffff;verticalAlign=top;aspect=fixed;imageAspect=0;image=data:image/png,iVBORw0KGgoAAAANSUhEUgAAASIAAACuCAMAAAClZfCTAAAAw1BMVEX///8lLz7/mQD/lwD/kgD/lAAAEin/kQAfKjoKGy8NHTAAFSsiLDzd3uAaJjcAFywVIjStr7MACCQXJDXq6+y2uLvExsnMzdCdoKUAACJma3T/3LiHi5EAByTz9PW+wMP/9+3X2NovOEZXXWdIT1r/796Ul52ipKlzeH/k5eb/wX//2LD/nxv/5cr/yI//s1s9RVH/r1L/7Nj/06X/qUFDS1ZwdX3/wHv/nxj/pTT/zJf/tmJ/g4phZ28AABxSWGL/4sNAIPdSAAAUP0lEQVR4nO1diVLqShAVCdmI7JuyRWRzAURQZHv6/1/1kkBgumcNF+Xq5VS9qleXZDJz0t3T28SLizOOhcJtsddd9W88vPVrlWzpqnHqKUVHodRb3Xw8x0wz1mqv+5Xi7ZEWcV9cta1c0rIz+VQqZXr/ZTJ2Wq+3bnq3x3nCd6CQvTFzaTufMp0AppnKWHqu9Vb5w0UUiv1Yzs6bMQaclK2n+mX+zffZPZoFlcc1ysXwhmJJ7Q3fN/cP4c6lkW3nrJTDWYS9zirNjvX0yitnYOIJeqzCWcvtf5a9Q/q6L39gN5nc35LOdeV3FLyl7x/yX4V9Uc2ymC85hGnn2ln5wzA84vWMcOCQJdtmz6ybAdfp7KsIFOtw5Lp82m3wDPOZdU1NhxNhs2RZCm+ERKGWtlX42cBqsfQZURRLyh7aQgLrxGR3lHS4zlfGJSlbcRW2KTAaGI1+XYF4cjHXjFdQSiMim+KnXuXwsLrMkt6kwPWpN+qKVU5oKOAq6pIZ7tG8zkciyEf6hhqmAV8xawEAPep12z3JTNETbKyZjWdVEdqgrmi2y/9FJsif3poaqI1UNS1+LhIJDymadzjTJLxeRyu8T6kbi80ipPZygzdqqmrDU1sWFgv9SvjcDK0SElKRtcOmqKC03ZCQvZMQz1EHDhnAanEl0wOAe50xpJjUDzjTDJSBRizyQsw7NYrwxqKM3D0aKQZHEr+jIsNsiEm9uIZXI0I/BNrAWeKfUOSYedu20mnLc9QyPG/SbKORasjsZ0SPXTFWlBL6m2W4ZTot8GslTY8XMzNWUq+nM2bGzuX0pIXWcihFKTtZj61XvWyzVCo1i9nu27P3EBZNOto0KXMq0hvWm3VM0USRKcrUyB/vr6nRTKve7hZvQ5veuL8tdm8cL4D4I4qcTDJ31ytTIUa5ayZpTUfvkd6UBZt4oU4NF6P3KABkNKEXdYen5+ivRVaoVGj208nUgRSZtt7qcj3O0istyckSvAZtjibtGOzQtFgUidzNBnQ1HaDGZeyHZloC37ncT9r+qlV3tA1FTkZ/rmD7C5FNYt3AbwGvW2CMsN3a3lDj34G89/yK/HGNhMiS+K2NbEvPmzmZr7qF7/GlrHxNvOH6uMpjjq6hYjTwnsOPKNiuhsMMTDdApKZJCS4gFc9LGPJRXrUFLwQg+19SvysqXXqF7DG1SyOLwDdGOFoJkeRnjZ7h+6mDNUAPQh4QR8QtbZ55yCJ7hK0NmirfGOHNbycbXAuCBAWaERTMWGpv/GuA9cOCP98jq8k1RuQGTg6Z4WZxkJ2DLCAPwuIN8h1oIjHC1gZpA9cYERpp3hA3mB+8J6+gKbomJb8hkrBvB/IhLWSMkHvHNUaEQtpN0oLZvAdDDxdSiaJDvih+C2oiF9eza+h9cnwz8jK9QPLKkztkiuA+gSybJNT7aiDvhPJPTShlHKEg8iaOA4IvntwVoSnKAW8DTerEFDVg4EDFIMhkcISC2IE8w9EghIC3CfbBnoUS+4iiEysalfFAP+PZsvN6zn4QX2yIfZIXyUJThEhAOQDztOYau/pp5FM1oEKwA0UynebLGWng2OkBlIBDF+FknrT48rXAmoRjc0Qhc7ZkOs23VqTPwzYkWcA8Vu8GckSldYKvRQVVFHHoCxcTS7Lc5RVK2ZDbFTutBnMIVLSLc176SZs0UIxBUYR2Z6YxIla0+Z34B2oDCOAADije+yiFya7TfheQlNCm4xVoGssYFYgwZbNaUntzjLQaNDZOHv9exNmn1POhnQ1HQFFGEdLEHD0EaXo2KkEOykqrQdGldZFOHJjp0zlHUorQ9sIwRkTmZ1siIDcsVloNRvJpmkRGMTDZjlCzPyqkFCHPieHHEWXb8FciWcdqZoD2DzsaHm6pBgFvIL19mqSInCLoFtCxO6kVYe6QlIIcxQCM/JgOOJXeD65Mp2on6KyTU4SCymvqd8IXDnMapLGh02qwFM70nK7oIpEPJ6+3ul/A0lWzV+uvP16f2x/r/qoLe0HlFF1IjBFhz3c7PGnAaNVcA0vDriTVeE0hTkZPrY5plkq115xu2ZmUGSCVymestK7bd6vs5mUoUASNK7ViQif2ppkYlVZNYGioIvAWgt4EJ59M90vs2yKi9JZLctorzLyVvH5eZe9RLZ5FEWSRWhKhh/sNnqQV+wm3QHN50cW9LmxOSKXrN8zaYxRkY7qkj8bJW7pChwyqFaFogLS9ezeRNDdJZDygp0V1W4QoMwu8JEtW7i77ByxlTeuQFhFmYA67XJAxItNp+2IOSRyWEzAcO0AJ0JR38ZlWbq3cvgdx36ZKrX9AEdyBkDEi02mEm0xsczjfUxeMBlC2FNrJzLTD64sWIasf2IfFpgjWipAvSCZCCNeOdGxgBgUmzIQ9o4VXZqsAgmNH7Sj2AmVObfRQilByApRYyViDNCsVbloNVFUcnOZE6NaV+hJtM5q6fUTrM1WgCNZJQPmd2BFBEpZ0OGHpCbSZwm4HBgo31yokOXqU7O1HtKZrFYrKQCxBYEqk00DbMZk5BKE8jOL5Fe0drm7qzI4xhHxMOV+y5jDkeF5jgLx/HCcaRReghwQYIyLIhZEEsW+BtgVYMJA01W5Q6KaSVBcLBVPaCr9Fl9kjaOtW625V61YqlW5tddNuZfS0nWEwxaEIpgEJY0Sm0/gmh4wxgNLK+t13KK9MXSZLDpUyZYKVRcjr7R4+3dYolLO1j5SOt1UORbBJgTBG5A+wKYKUFjKtBgIL2akJsLRuKyc+2WLGVHb/FjWGqa/45N4XUZqYQxGsSeT3xohIp6FqdoOdVoOmKGLe/r7SzokOXuUVbHaP8iPsD7H0iStaO9yRTBLGiMhs48w/IS5Eeh7II69HQIBCdk2JPjF9uVTaWF11WXPblRpFMNu8e/mkdOEsCWl09tYLJOgOq9Y3mm9Wms2S48huzmKPKC1t/1OkCArbzhgB7wcpDSkv+70ddCyxqiNqKL3VKXEIJiEjnWpLF7QBb6FIEbSyO9tC+NBUWqjASquBshwrra2MRi+WpkmStUVSp+ZsuTVUpQiEDTvbckdn9vcgXtiOP5B74jRRKKPo0D6gLvZFUclL6XwWzG/xKYIp+TBlTzwwTaUBSbNjM/5NdtJIASsqGhW1el/QZQNBS+8OqFGFP2vgZ279GZI3+mGkxISeLzh+wU8VKaOJOZIMii5XOhKhkLveALz/rWdEJJIYZfd7Oq0G0iqSF66GIuaIrklxpkRMS4yePHe9AYittm35RDqNtV5C8LbFMpApV42pxMCFW5wGBkA6w7AODKh51z7AC9ic1CViWFYoQcx+myghn0Z3OxyEAtqjhDEN7qdQsobokLDgnjUVXJFqw6qGkW7aZmCyaSYlSxUpAlblxO4odhyFp8FCoKqnIH8D2myCVFiRmdnfg3QogpkDU6Qk5ApApkK4jeM9X4UifHhD8A5ArSighLDg7OwhoflBWg28RF0+OyWodaxucAhFNexKCcQUNGP5xogIJtgnWW6ItJq/GZMFyKMdW0CenXCTqkQ7WB8AnwASvQPwCjxOQDqNmU8gdcCPx2w4wHGAdinhuNgWWXJlx99OEfoqIL7xNIufTgtBupaegQfBzvWxWjzRLiXMhlPnNKXxBz49KMmUks1YnjEi02mc2whSPfJJoeKfMYqKmqTnlwRSSoVZvFIZPNFRTTgZvUEk8Hkm7A6k1Ui34Xi91Oj8gXAXoGRCFqO9MYoljK66HcD2Z2elPfrQfOWA86n6lRgpSlAwRMfAL3ALoTTSf2NVg4WqDB5ARqS8IwgkqZkuEeUdr5Ma9SFJpJP6Po4wX7RmFm2F5VHeV234r4608GonQj2U79YVVSFboVVci2+k8rKC9PlVi1OS5J5DvGC0jIf3cF8d/ghSCJFD0silzEz9Tsn5rkW0vwWqh5L+KtEW3Ryv1iLK/nLPmnOja8qr2ECY1dm4CmYyJhWlxhoXVnUZsfQ7s1gq0OiZ/M4IoZX4YBPL30XwF9m2EKaKQgPmZHLtnmALb1RsrPhyE9ekj8vnU0gq/BILWTygzIso+0t/MC2YGF+6G4zqcIxzICkEYeP97570i8yvvZZXNj2ZujwFxfhEjmNltg9pFG6LtdckLNRZ2N5xW1h9sL51Jba9zMZXcaoIhtbBB0Cf+91i6apQaHgoXPm1divJ+EpJRiG/QqUpA6QsPWlZfjOxhT+mmqzBQqsPkRgxv7ElkgkcJ28mJP72E60LTsr/Lq6uJz3oeppaxgam0oczeDsIB+kVo1NCVN5iml9RZZ751R7GwRgxRWrIKVVU6KhLhGQgmNR5C4FvccsYX6SZVN40gMiFP5yiumKOrsi2j0xsv5RLVSj/E2y2jC+x5YWVDIZqSoIEJqtyXCtnV7qqcuTkwr2uDy2fLUp24TOZMVmTEOM7dLJuB45rIVlNhFalmhpHmdhug2yADoK00EHFH2KJybKbDI9clg69it4TnXEiVXa77INKAE6O3FSae9E2c5IsE30mU9y8gD/wo5KkuW+p9FuTq7mJmKBrSg9/WDG4T6/CKVmvsn5Bahe3JJkfyjNKKhiNXjLC+YyoXdc+GmtuCBYQRIedH4E5Mq/ljRKNOhzaFH4R00MJHXfJq5Xyey1p/+fm+Vb6sAaT8itHkvxzgSxr2U6mUslnlZbTq1YumQ6RzMnv6V37jusW6VxbVSduazFd8mVz/8ODhx+9Lr+l08gJDf4iwYoTxmTv1qq75n25FKKsktdplJvFEE2lxt8QV721F36wP/nqr6bV/cP+m1LtNaP7fzIg439hVtd/1t+1CHHb67csv008lTLN8A9ceOFI7CYbiW4u7svNbKXS6xV/5F9HCdG4KvW6/XX79bn1/Ny+63ezSuJ7xhlnnHHGGWecccYZZ5xxxhlnnHHGGWecERnuy+fj8GG2HPtYzh4W1YF76jn9Peg8PkzjmqYlEvEdEomE9w/z2aN76tmdHJ3JKK751Fyy4FFlPC3cU0/yhOgMn4wEmxyCpoQxPPVET4XHqZyfDf5NjtxFXFPjxxeky+CeYUIbv5x43t+HRUJRgLZi1PHuGRgeWcbSPfXcvwXVy0QEfjxoA/8uLZCoxOLU0/96uGMjigQFFFX9+7aambh8PPUSvhgvkVRsg0RASnVLbVx7+jzxIr4Wl4Ch0E8MwfaQEtXg1kFo4ePG9Bfb7U9jS4zvPmuJy3kQbUweA0yGs+VTQqPkTPvc3NzZERg3xp2TruML4cYNn5ilH4R1XOYlnckcOQSBuQ7uftr94G1uv5akFw4zJAZPgCNtT8Z4vxn+ZpJUAEyWQfwwMwhLpv3LJE0I12nrXYe/kD5D3Bj9YsMtRkcjeJiCnwbAnHu724Azxm8HSdEM/uQ+Ae/c85Oqp5njiUFQlJjgH0faJSTp8h8ISygQJGi0uVmgIMZzsx7c75/kSeGSUsT4fUC54Qlj/KuN0uCx6oJ/IMw1stZbuFMNceQbpYnLuvbnw11cagkN5hYHewISnKTjkM4YePq2/IVOwGC5DcoAR4RfpPH0h1a2QJTmlHX/0XAnT/t4jLQ5y/3q4/zbx5SyBaKkLX+NVfocgajecPc/ve/j1ZFghAk7A+55AcNfEJp0hjjDT0gRsaFpwiSjO2cJUlBbmv9s2+1O5lSJKEE40Z8ERa54KIbV3rE0/rHV3OqYUUJLzIkrHvZ6NpaN1plzqwWeWRr9QJaqI41hQOLGkrxony/SFOIvriD5A2s/iyW3OkowDWw8AZggHEeWa02hw7FIO1maTn6E9XYnY5b8BKIydcGle68IR/k8cLY2gqWnh7/cE3hZzOm0/U4XsLM33l1pqL59aXnOYym+/FtVzq3OLrn8eCI0xzTst3x2fMbGp7zI6zfjPHwec23HwGA4NzRO/xBbhC4uHndrDctDahgqtFJ4wmRMh3+Nzr341kdYfY1rY5e+b6dn8adoD3RHSsXwDU2fjCd/K14WQf+ZeK6JS9aWvtczlR0fYoBrcCKanmaPJ8oLuJ/DKaOmSs9Se2Dev9Oz+Jz5uxiP6n0nfqNgfDqsfqtD4A4WyyeJcoXzM0Yue5BpeLfxedAkFokozTm+OMWnD48vnNkcEe7nYlOQVxL0uDbnmUw3LCZG2c7gCA/qLXAhT97Mn5aeQLkHPlMyo8GmLViRnYAgQZPQIpQBZZ+IMaVZ5CamQO80TbsczyafR2PKfakuZvMNOVFmlKDLPgTC+CzBtlSqc1seQNKGKJ8pIz5fPkyqB2ufR83kYTnXjCiSs5tCQtyL97LVM1imPmSWMy1iwyCiyu/vMYz403j5sJhUB7J+DbfzMqhOFg/L8TxuGJtW+4MenIhLqoKz7bjGn7t37kO0tlMeV9tuKI8vz8a9z6fT8Xg8Gi19jLz/nc6f3i8Thk+Lxm0jU36aQtl06xRxHIKoJEVpXlZbAgdHGl17khcnHjcUHbybUZi8H5mkr0PcmKr4yhunKB53j0WRF99G79E9AfzCjZKv39kYa0YZ/0/QmR3DKH0lfBPkqi3mIdiEDnSrRXic/72i5Bci1Fcc2D3jS5rPX2bspPCpEUGAfASnGIwv66iqjpXCx29EXEvMonk3np7Fo6XRIsIVJIi/HR4/o8jiUDUMKk17bCidFPwefg5KpXe+JcfVGdLF4G+lx+Pnry017NBZTI3TWG9v/7qcfZ56/Wpwq0t57vjI9MQ1Y7r4WV1iL74wfQ9NPj3vDycvKhyEwXB+SFYnEj0JTXufoX7OH4bBYhz/Gpr8DF3iLyhJHQWdasT8spwcz5+fzx5/RMuFOjrV4ehJi5xrZpCjvY+Hp6rTfT38pPxyfrnNrqp/UGCX9x4NH/+Nz8K4L5+T4XL6ntikosnvvgAEH4HRDO1yOvp3P5nTefl8nCyGs+UoyFS/b6Tm/Wk+HY+Ws2GQ/XdPPckzZPgfxDqmtdvUKoEAAAAASUVORK5CYII=;" parent="1" vertex="1">
                    <mxGeometry x="399.52" y="800" width="133.33" height="80" as="geometry"/>
                </mxCell>
                <mxCell id="3" value="" style="shape=image;verticalLabelPosition=bottom;labelBackgroundColor=#ffffff;verticalAlign=top;aspect=fixed;imageAspect=0;image=data:image/png,iVBORw0KGgoAAAANSUhEUgAAAlkAAAGvCAYAAABo28DeAAAAGXRFWHRTb2Z0d2FyZQBBZG9iZSBJbWFnZVJlYWR5ccllPAAAA/NpVFh0WE1MOmNvbS5hZG9iZS54bXAAAAAAADw/eHBhY2tldCBiZWdpbj0i77u/IiBpZD0iVzVNME1wQ2VoaUh6cmVTek5UY3prYzlkIj8+IDx4OnhtcG1ldGEgeG1sbnM6eD0iYWRvYmU6bnM6bWV0YS8iIHg6eG1wdGs9IkFkb2JlIFhNUCBDb3JlIDUuNi1jMTQ1IDc5LjE2MzQ5OSwgMjAxOC8wOC8xMy0xNjo0MDoyMiAgICAgICAgIj4gPHJkZjpSREYgeG1sbnM6cmRmPSJodHRwOi8vd3d3LnczLm9yZy8xOTk5LzAyLzIyLXJkZi1zeW50YXgtbnMjIj4gPHJkZjpEZXNjcmlwdGlvbiByZGY6YWJvdXQ9IiIgeG1sbnM6eG1wTU09Imh0dHA6Ly9ucy5hZG9iZS5jb20veGFwLzEuMC9tbS8iIHhtbG5zOnN0UmVmPSJodHRwOi8vbnMuYWRvYmUuY29tL3hhcC8xLjAvc1R5cGUvUmVzb3VyY2VSZWYjIiB4bWxuczp4bXA9Imh0dHA6Ly9ucy5hZG9iZS5jb20veGFwLzEuMC8iIHhtbG5zOmRjPSJodHRwOi8vcHVybC5vcmcvZGMvZWxlbWVudHMvMS4xLyIgeG1wTU06T3JpZ2luYWxEb2N1bWVudElEPSJ1dWlkOjVEMjA4OTI0OTNCRkRCMTE5MTRBODU5MEQzMTUwOEM4IiB4bXBNTTpEb2N1bWVudElEPSJ4bXAuZGlkOjdDNkU3MUQ5QTUwQzExRTk5RTBCOTFCODRDOUI5NjRDIiB4bXBNTTpJbnN0YW5jZUlEPSJ4bXAuaWlkOjdDNkU3MUQ4QTUwQzExRTk5RTBCOTFCODRDOUI5NjRDIiB4bXA6Q3JlYXRvclRvb2w9IkFkb2JlIElsbHVzdHJhdG9yIENDIDIwMTcgKE1hY2ludG9zaCkiPiA8eG1wTU06RGVyaXZlZEZyb20gc3RSZWY6aW5zdGFuY2VJRD0idXVpZDplZGRmZjc1ZS0zZjE4LWM5NGUtOThkNC1kMzJmOTc3ZGM0YzgiIHN0UmVmOmRvY3VtZW50SUQ9InhtcC5kaWQ6MzY3ZGQwMjUtY2JhYS00MTFiLWE1NDktYTFkZDBjNzAwZThlIi8+IDxkYzp0aXRsZT4gPHJkZjpBbHQ+IDxyZGY6bGkgeG1sOmxhbmc9IngtZGVmYXVsdCI+bW9ieTwvcmRmOmxpPiA8L3JkZjpBbHQ+IDwvZGM6dGl0bGU+IDwvcmRmOkRlc2NyaXB0aW9uPiA8L3JkZjpSREY+IDwveDp4bXBtZXRhPiA8P3hwYWNrZXQgZW5kPSJyIj8+g6whIAAAVJJJREFUeNrs3QecHWW9//HfnLO9J7vJbnpPNo2EFroUuQKKIhoVC8S/XSzX3rj2a694bVfFa7DLqiiIFUVQaiCQhLAJ6XU32d7bOef/e+acQAhJdubUOTOf9+v1OHE5M3v2mTkz3/PMM89jCQA41Lh67SRdvELLpVpWapmhJRSwaoho2aPlES1/0XJLc9OaTo4OAMeyqAIADsJVvS4+qeV1WgqpkWcY0vJdLZ8ibAEgZAFwE7BW6+IHWqqpjZM6pOU6DVp/pioAGCGqAMBJAtaHdHELAcuRyVru0Dp7M1UBwKAlC8CJAtY7dXEjNZGU1zQ3rfkp1QAQsgDg2IB1ri7u1hKmNpJi+mmdoUHrcaoCCC5uFwI4NmAV6OJ7BKyUlEi8MzwAQhYAPOWVWpZSDSk7XwPr5VQDQMgCgCPeShWkzfVUARBc9MkC8JTG1WsbdHGQmkibUS01zU1rBqgKIHhoyQJwtPOogrQyA7eeSTUAwVRAFQA4ysKk1rIsidXWa5kkseJi/9RGTP+04SGx2lu1HE52K4u0/JNDCyBkAQi2Wtc5pLRMostOl1ilP8crjZn/mT5brK4OCW96WGRk2O0mJnBYAcHE7UIAyX/xKiqWyKnn+DZgPSNs1UyUyGnniIRdfzct5bACCFkA4Ep07iKRkuBkiFhZhURnz2fHAyBkAcjk2SMs0fppwQuWU2bYfdAAgJAFICNMXywJB3BQ+KJikcIiDgAAhCwAmQobwQ0asaJi9j8AQhYAAAAhCwAAgJAFAAAAQhYAAEAWMeI7gOyIRsXqbLOXtnBYYhPq3A2H4JVtAAAhC4BXmClprLbWZ/wsNmW6RBavzPk2zNhX0cUr2EkA0orbhQCywurrefYPe3s8sQ2rt5sdBICQBQAAQMgCAAAgZAEAAICQBQAAQMgCAAAgZAEAAICQBQAAQMgCAAAgZAEAAICQBQAAQMgCAAAgZAEAAICQBQAAQMgCAAAgZAEAAICQBQAAQMgCAAAgZAEAAICQBQAAQMgCAAAgZAEAAICQBQAAQMgCAAAgZAEAAICQBQAAQMgCAAAgZAEAAICQBQAAQMgCAAAgZAEAABCyACCTYkXFz/5hcXFebgMAnCigCgBkQ3TZaWK17NeUE0t8xQtJtGF6Xm4DAAhZADwjVlImsdkLfLENAHCC24UAAACELAAAAEIWAAAAIQsAAACELAC5Njoa2D/dGh1h/wMgZAHIUNAY7BeJRoP3h49puBwZ5gAAQMgCkCGRiFiHDwbvpHn0GFsAQMgCkAnh7c0iQbp1NjQooZ1b2fEACFkAMh86wuvvF2twwPd/qtXfa/+tQn8sAA4x4nvANK5eW6WLidQETqDKdfjo65HwA3fZU9PEaieLFJfYU9X4gulzZlqv2lufORUPABCyoKGqQhcv03KVlnO1TKJWkIkwEjqwR8QUAAAhy+fhqlgX79XyPi0TqBEAAAhZSD1gLdLFLVqWUxsAABCykJ6AdZYu/ii0XgEAkFM8XeivgLWIgAUAACEL6Q1YRRK/RUjAAgCAkIU0eo/QBwsAAEIW0qdx9dpyiT9FCAAACFlIIzMOVi3VAAAAIQvp9SKqAAAAQhbS7xyqAAAAb2GcrDyX6I/VkMy6seqJEpsyXWIVlRq3w/6plLExsXq6xDqwR6yBvpQ3Fystl9i0mRKrmqCfGB99ZKJRe9Jj6+A+sbraU9tWOCzRKTPicxcWFYtYlj/qyMxVODwkVlurhFr2xecyBABCVmC4H7IhFJLoouX2RdGvYjUTRWbMkdCOZgnt3p58DtFtROcv8U9oOLaeqmpE9DiwNECEmzckFSJildUSWX6GSEmpPw8m/ftidfUSmzlPQhsf0mDaJwDg6HJLFQQvKEcXLvN1wHqKBqPovMUSnTY7uYCldRRdsNS3AesZQalhukQaT3G/XkmZRFae7d+AdfTfWlYe/1tNSx0AELLwrAtFVY1Ep84M1N8cnd8oUljkMroWaMBaEqxjQ4NWrMbdQ6rReaZuC4NTScUlEp2zgBMJAEIWjnMhnTI9eH90WAPTJHfd1sztISkoDN7x0TDNVb3GJjUEro6i9dMC0boJ9xpXr63X8hMtC6kNELKCGLLKK4P5h5dVUE9O/u4K5393rLTM7t8XOCZ8c8sQx3eTlldr2aRB68taqqkSQhaCdoEIYnhwe7vQT09bZurvLiwM7MfI9fEE39NA9WZdvODIp0PLe7U8aX6uhWstIQsAACQRsObr4ivH+U+TtHxXyyP6mouoKUIWAABwHrBM8++PtZSf5GUrtPxDX9ukZQ61RsgCAADj+4iWsx2+9qVantCg9TEtdOwjZAEAgOPRoHS6Lj7mcjUTrj6pZYOufx616G+M+I6TstoPiTXQ/9T/j1VPiI8SnofbyGg99XaL1d2hbyzx/krL4sNA5OE2MmZ0REKHDj49qryZimfyVHdTFXllGyBgrV5rRuD9aQrXUTPMw926na/q8r+am9YMU6uELAQpYLW1SHjDumN+aEnk7Ivjj+/n0TYyanhIwg//+1lT0kSWniqx+mm538ay0yU2eUrOqym86WGxOtufFZ7tKXmyuY2NDz9rrka32wDU57QsSnEb5m7S+7RcqmHrFRq0tlKt/sLtQpw43AwOPvuHZsLcocG820ZG68m0sB1nzr+jW95yuo3+Xo8cTwPP/uHxfpbpbQylvg0EmwaiVbp4Rxo3uVLiTyBeR+0SsgAACGrAMmNg3ZSB66d5OnGtbv9bWhiIjZAFAEDgmEFGl2Vw+9dr+acGrSlUNSELAIBASASfG7Lwq8yQEOv0951KrROyAAAIgs9rqcjS75qq5R4NWldS7YQsAAB8S8POmbpw1TE9Vjsp1UnUTT+t3+nvfid7gJAFAIBffd5VwKqqkcgpqySy6jkSq56Y6nX6Rg1an2QXELIAAPAVDTiX6uISxytYlkQbV9jLWFmFRE47R6LzFqfaqmWm4vmGFos9QsgCAMAPAcuEms+5WSc6fY7EKiqfGbpmzZPI6eelOoCyGZvrR4lJqUHIAgAgr12txfl0AEXFEp2z8Lj/KVZZLZEzn5PqDAymX9jNBC1CFgAAeSvRivVRN+tE5y46+TyY+t/MVFfReY12C1eSXkXQImQBAJDPLpP4lDeOxMorJDplhrMwNmu+RE45U0NXYSpB63v00SJkAQCQjz7i5sXRue5ap2K1k+1+WlJSmuz7e52Wr7GbCFkAAOSNxtVrNf3IBY4DU1WNxCY1uP49pvVrzHSIr6hK9q3+p77XD7DHCFkAAOQLl61Yi5L/TcUlEjntXIlNnJTsFr6gQetadhkhCwAAT9PAslgXz3f6ersVK/mAFGc6xK9YJbG6+mS3cJO+7wvYe4QsAAC87B1uXhydPT89v9WyJLL8DIk1TEtmbdOD/rcatOax+whZAAB4joaUanExR2GsvFJidQ3pewMmaC1emWzQqpX4XIcV7ElCFgAAXvMaiU/M7IgZyT3tjgStSUkNWrpU4qPCM7QDIQsAAE95o+NXFpdIrH5aZt6FCVrLTku2r9dLtbyHXUnIAgDAExpXr12lixVOXx+dOjOVUdudBa1TzrA71ifh8/r3nMNeJWQBAOAF/89NAIpOm5WFq3Q4/tRhabnbNc3cPj/XoFXDbiVkAQCQMxpGinVxjdPX2wOPFhVn580VFklUg5YUup6Cx6TAb7F3CVkAAOTSlVoct/pEp83O6puLlZVLZNkZydyefJUGyGvYvYQsAABy5VXOA0+FxCbUZv0Nmt8ZXbA0mVW/pUGrgV1MyAIAIKsS40o5H+F9yvScvdfo9NnJjKE1Ucs32dOELAAAss3cKixx9ErT4b1hek7fbGTRKfYgqC69VMPkS9jVhCwAALJptdMXxmpq7fGxciocluiy0+wnD126UYNWObubkAUAQMZp6CjSxfMch6zJUzzxvk1LVnTBErermSa4T7DXCVkAAGTDBVqc3Xsztwo9ErIMM05XrHay29XepcGykd1OyAIAINOudPpC+1ZhYZGn3nyk8RSRAlfjZ5lBSr/IbidkIcdipWXH/SYnJaUutlF6/G2UZncbGa2nsnL9JD37o+SmY6pXtpH146msPC+3AV+53PGxU1fvvXdfXCIR98M6vLBx9doL2fWZV0AV4GQnlMjKs8Tq73sq2MSqJxz/InXCbTQcfxsl2d1Gxk9yZ5wvVleHvtnYU4HHVTO+V7aRyW/cy06X0OEW/UckcfYpcH3rxSvbgD9o0JhqFnkdsiQ+pESsZa9Yne1uVvuK/v1nNjetiXEkELKQqw/vxEnJzgLvuW1ktJ4qquzih21kjJkaxEyo64dtwC8ucfzZMgOQlpZ59g+JLlwu4Yfu1n9Ena5yupartNzKYZA53C4EAATVRY5DVu0kT/8hsfIKic6Y63a1jzeuXmtxGBCyAABIt+c4DjE5mEbHrejs+W4nrV6p5YUcBoQsAADSpnH1WjPVzAJHLzb9QGvqvP9HhQskOmeh27U+wNFAyAJSoqdIKgHA0VY5faHdz7EgP7owm/6Gpv+YC+dp4Dybw4GQhXQYGeHvdiIyFsx6cvN3B/VYMqF9ZJhzSf47y3HIqp6QRwenlUxr1vs5HAhZSMfnr687oH93j7vX9wa0nnqd15M12P/0MAiBCuwasEaDGzB9xHlLVj6FLPN+66e6HR/vqsbVa6dxSBCykOpF9OC+p8ZQCtJF0WprdVdP7YdEhoeCd3wc2OP8xdGohFr2Be+kaeooxu1nH1ju+JVVE/Luj7M7wTtnZpp+I4cEIQupXkT7eyW0e1ug/ubwlo3ub/9pgAg3bwjUxdQcF25b/EI7tog1NBCwz892TiR5rnH1WjOY3AxHLy4o9PT4WCcSmzzV1ewcJmRpvTB2JiELKe90vTCGdjT7P0CMjUp408NimdG9k7mgth+S8MaH/X9rSI+D0M6tEtre7H5drZvwI/eJ1dPl/4DV2Sbh9fcHt7+evyxx/PGoqMzTA9aS6PQ5btYwo98/j0MjvXyTWjWBm8cpZmsxg5kEaXC1hqSC1q5tEmrZL1H73r15cibsn4vh6KiIXvRDrQfsoJXSttpapOC+9vi0K2Yqn8JC/xw5kYhYfb1iHTog1mAKrVFDgxJe9y97+h4zYGOsuCQ+t6QfRGNiDQ/at5tdTllytNl6froogNeXXi27m5vWtHnwvTme7M8+P+br4Tttpv0FysUXg9douYNolMbrUZ4Hq3m6eL2WF7n50AAAsma/lj9r+ZEGrns8cu34ojh8oi66aLmGlVl5W/mh5g3xfoTODGqZrPupj8M2PfKyJUs/IGY2V/MhebUEq9UKAPKNeWrtdaboufs+Xb5TL+LrcvyeZjt9oZlkPZ/FzDydzkOW6cR1tZYfc9imKeTmYcC6QhebJN6sScACgPxxjpYH9Dz+kRzPmed8hvCSsryu8FhVjdtJ41/MYRrQkKUfStNydbuWiew6AMjb685ntHw3h0FrtqNXmel03D2h582g1eBqCKzLdL+UcJgGLGTpTr9MFzcLT0QCgB+8Sct/5+BaYmZQrncUTkzA8sFDHFEznINz5v7opRyeAQpZ+qEwH4ifErAAwFfMbcNsX9BrHb+yqNgftaxhMVbj6gbQFRyaAQpZ6nOuPhgAgHzxv1keBNN52igs8k0lxya5Gu2HlqyghCz98JnR1K5jVwGAL83V8qos/r46x8HELy1Z5m+prXfz8oV67Z3OoRmAkKVeK/F5lQAA/vSGLP4u53dF/NSSVVbudnqg53JYBiNkvYDdBAC+dl7j6rXZemrc+Tw5YX99vzezMrhwLoelz0OWfujM14hT2U0A4Ptr0Wmeu+6F/TVfcmyCq67NZ3FYps7rR9CcpIKgmRizYbo9NkisXL+0hHw0L9/IsEhPp4T27hSrtzu1D1z91Hg9mYHqfHQyscyEzmbuwv27xOrqSP3EVD1RotNniVSZuQv9c/vAzGdm9fdKqGWfWGaex1QmDC8qluiMuUfNXeiTB4FjUbGG4nMXhvbtFBlNbS5Mu55maj1N9HE96bkpyTlDF2j5WxberfOROUP+eqDdnMtcWNa4em15c9OafqKSf0OW+1Hg9CIYWbHKHuXWj2IFusvKyiWi4chM/GlP/ul6rxdIZNnp9onet3VUWiYRDZGhfbsktHVT0tuKzl9iXxT9+ekvsC/0ET0OrCkzJbzxIb04jrmvb13fHE9me748nvScEqus1qA9W8IbHhKruzO57dRO1no6zXetI8+qp2mz4vWkX3RcqvTc3xTyWXdgDfmmb5Y14Cg3mT/etC7eI0iav2K6ZUnklDN9G7CeFQDmLExq4tLIkpW+DVjPqiO9MJp6SmrdWfP8G7COvZhMqJXI0tPdr1deqZ+5M3wbsI77BS6JaVZMa3Fk+em+DVjHXsgjK86yx2ZyKVvz1wR7OraqCW5evZSYlOJ3WV9dKOqnSqx6QqB2YHReo4Ra9tu3fpy2OsTqGoJVR7Pmx2ehHx5ydUFNNpzl7efH3OqrnSxW+yHndTt/sa9ux49/xiyU6NxFEt683t0xGLR6Kiy0Pz+hJx7z5KHuPI3FJOa3z3lltVgt+5y+fJmTFzWuXmsabMwYETO0mOHlTeevCUeVmsTSJO+SRDHM6PKFR+2XI31gzAWtT4s5aXceUw5rOaDFzHq9p7lpzSAhK1sXU3dTB/jmpG8ujtahg84+YJOnBK+OQiGJarA0fbQcH0t19cG6KB75u+unSdhpyDLHXkBaRJ/xGTKDOpq+OtGo48ARxHqKTpoioeYNqfX1y7Ukbp97/vh1N1n0sqOClJkAcX6iLJL4+GbTE8V8c8/JCVPfV0cicD2hpVnL5sRyiwaw0VzXt7/arssqJIhipeWO279jAa0j04+NYym99WSPuWMF8M5LOCyxohKxhgYc1lNAjyVzC9kM5ummBTk7uiTAXIasszTErE8EK68eyBMTZeUxPx/R9/6oLtdpeUDLgxq6mglZqRw8oYBObejm7w5C35njHRsFhZmrU46lYAYIx6EsuFOuxqxQfneAikT8t1MKC+Ph1zypPr6S44SXfGEeBV+VKNebH2joatXFP7TcaYqGrp2ELAAA0sf5uC5jI/4Mv6Vl8eGAgsf0G7smUUzoMrcWf6flNi33a+hK+73tEJ83AECAtDt9oTXiz5AlJWUcBXFLtHxYy71admvo+oKWFen8BbRkAQCCxHlL1qiPW7I4Do5lnoz8gCkatMxjsd/R8rPmpjW9qWyUliwAQJA4bskSv95SKy7hKDg505r1XS0HNHD9j5Y5yW4ouC1Z0aiE9u8WOfKEkGXZYwTFJtTl3zYy9nUnFh9faqAv8QN9bzUT44+w59s2MsyMLWV1tj39uHpZhUSnznT19J1XtpGxOhrsF+vg3qc7E4cL4oPpujjhe2UbGa2nAX1/LUe9PzM2l3l/prNynm3Do/QDIubR/sLxj5UB8SNfTQ+WWeaJyrdreasGrSZdfqq5ac1mQpYDZsyk0JPH1NXenTJ23qWOTyJe2UbGTvaHDkhoy8Zj3tsOiZx1YXxOyFS2cfZFjoeTSMc2MhseBiT82IPH2bkhiU6ZkVfbyOhn7vH1z5pqxertio8OnmfbyGg9bXpYrL6eY95ftz2bRb5tw4v0IhnVC6YZV2neuC82czCasbL89iQtIcstMwbYK7S8XI+dn+vyBj2Odjn6HAW2yoYGj9ti4uqJC69sI1Ph4USdPl10Bj3hNoaHs7qNrB9LJ/u5l7eR0eNpOOV96JVtZLSejjf+lst96JVteNgux/Uw6MP5kYs8ELLMFFNmaJ1ji7eHzzG3BF5lsrqGrc9oGbf5m47vAICgcRyyxISsympf/fGxdM6hqaHIns+zuFjDW4n+W3NHYbHETJArTBQzGb35nXYJO+u+YFoQoxGxTGvi6Kj9EIL9BcmU4SH9EjBodyGxl9mfVcDcZvqIxFu23tLctOZOQhYAAHFPOn2h1dsjMb9N2ea2tcgEKdM1o7zCXtqzPWgxs41krFuLfYtWw9lR2z9ulDJ3fkwQNn0ITegyt7h7uuw+hVlgRsL/mwatr+nyQxq2RghZAICg2+g8ZHX7768/ybysdqtUZZU9/Y6ZTFrKK/Vnpd6dQss8LGYCoAl/9lijCWOjdt9Lu3S2i9Xd4Xy+UffereVsDVsv0aDVQsgCAATZhkCHrCN5qahYYlU1WiZIrLomHqrcTkHmVYkJ7O3J2WcvsJ+Stbo0bLUf1tKaiSdHz9HycCJoPfBUnuWzBgAIEr0I7hOnE0WbAUn90+E/LlwgkXMukbHz/8N+WjQ6e3582CC/BKzj/s1he3ik6MKl9t8eOfMCic6aL2Ja6dLH3Fe+W4PW65/KenzcAAAB9IiWS5y80LSAxBqm++qPt/tVBZhptTMlOq/R3r9mvErrcEs6bimaRzd/oEHrdF2+i5AFAAiiex2HrE7/hSwcFbhqaiWixbRamrAV2rszHVMqvVXLUkIWACCI/u30haGOwxKlvvyvsEiisxdIdMZce5aR0O5tqU6tFKJPFgAgiExLlrPsZMZlGuinxoIiHNagNUfGzrlEonMWnvRpzHH8gpAFAAic5qY1Zs4g508ZtrVSaUEMWxqy7KnkJrqeT9gE+FsIWQCAoPqT45B16CC1FVDmIYHIyrPtscNcuEuD/CFCFgAgqP7gOGT1dPpvKAc4ZsbVOnbC9HH8zPwPIQsAEFT3idPxsswFk9as4Ias/bvdvHxMy28JWQCAwGpuWhMRV7cMD1BpQTQ2ag/t4MJf9djqIGQBAILul45DlpkHz4/T7OCk7HGzImNuVvnJU+tSfQCAAPujFsedbVzeNkK+MwOUmpDlXLuW3xCyAACB19y0xow2+Wunrw+17nfbqoE8Ftr1pH270IWb9JgaImQBABD3c8evjEQkdHAfNRYA5olCl32xTBr7xjNCGtUIAAi4O7XscPri0J7tIrEYteZzoSc3u50w+ubmpjX7CVkAACTohdFcSf/X8QpDgxJqoTXLz6zDLWK1tbhZxTyp+vlnBTWqEgAA+ZHEb/c4uwjv2kZrll+NjUl46ya3a/2fhvVthCwAAI5hpkDRxa8ch6zBfrFa91NxPhTa/oQ9KbgL5sUfP+62qE4AAGxfdHUx3rmV1iyfsToOu+3sbtyoIf0AIQsAgBPQC+UGiY+b5eyCbJ4+27eLivOL0VEJP/GY27VMuPrsCYM4tQoAwFM+7+bFoV1b7QErkf/Cm9e7vU1ovEvDeQ8hCwCAcegF825d3O14hdFRCW1vpuLyXGj3NrHaD7ld7S96vNxy0u1StQAAPMNHXF2gD+4Vq6eTWstTVvthCe3Y4nY1M1PA28Y9NqheAACe1ty05t+6uM3xCrGYhJ7Y4HbgSnghYA30SfjxR5J5gOGG4w3ZQMgCAGB8pjXL8ZXX6u+1bzkhj5jJnx970O3chMa/tHzNyQsJWUDKX4V8tA1wQHFA2Zqb1pjRKL/nZh0zmbDV08UhnA8iEQk/+oD9hKhL3VquTcwSQMg6kVj1xGf/sKhYYqXl2d1G1YSUt5GxOqqoevYPw2GJlZWnvo3yiqxuI6P1VF4pUlDgbN/mYhvVE7xRT5XVjn6W8W1UHGcbVTUeOjdNSPn9HXcbLo+DdGzDB27Q4ryzlbltaJ5Qi0QIMZ4OADEJb1wnVm93Mmu/SQPWLqcvLghsHU+eIpEzL7DnoIp/abPiJzK9eGd1G/VTJWJCSwrbyFgdTaiVyFkXigz0P/XF1r5AFZekvg0NktncRkYVFsnYWRfFP7BH7utrSI5VVKa2DT0u7OCUzW1k8ovj0tPE6mp/+gJkgvKEuuxvY9mx2yiwjzHPfMFefsYz358G51hNbV5uI9/pxbS9cfVac9vwO07XsfQ8Fdq6SaKLVxBmvBywOg4ns/Z39Jj4lZsVCgJd1+YbsMtvwV7dRkZbaVK8SHtlGxmlwTPmInx6ehuZEgpJbOIkf2yDegqSn2j5tBbHad48bWgCaWzKdGrPiwGrrTWZtR/U8i63KxVQ6wAAPFPj6rXm28qbtHzYTcA6Irxlo0Qqq47f3QHZF43EA1Z7Ui1YLVpe2ty0xvWos4QsAACeDlem49n1Wt6hpT6Vi3powzqJrLpAr7SFVGwujY1JeMODYnV1JLO2GQL+Kg1Y+5JZmZAFACBcrV67Shdv1vJKLaVp2eiEiXafP+SONTRgD9Ng9fclu4nrNGA9mOzK7H0E44MmMSoh3WL88cj7YDVNF6/Wcq2WZencdnTmXInOX0Il5/K839Mp4Q3rREaGk93Eu8ebNidQIcsaG9VTX2nwjiQ3A6klf7DlN7d/t/vB6YJ3LI0G9Fgy55oRF10zRkeDW08R7/3tGqxM8rlKy4u1nCnpHhAsFJLowmUSnTqTlJNDoQN77Kc8UxiF/wsasL6e6vvwV8jq6QpkJ0M3g9/ZdRTAJ4bcDhAY1AEFrW4Xx5IZUsOEsqD1NzHDrbgI7WbaDtMn5HhjmPn6WBrs90TA1FBVpotztVyWCFbzM/W7YqVlEl16mqfGXQscDVWhLRvtJzxT8F2JP/CQMn+FrH27RAL27cGMiWR1Ox8rz6T76Mx59retwNTR0IDr2dXNGComRLgZeDXvxWJi6fHh5vWh/Xo8zZoXrG/I5jzj9qRvf+7mBuvc5Lae0h+qLkoU09cq498EolNmSHTB0sCFaU8dc3099mCwVl9vqgHr+uamNWnpE1DguwreuVWicxYG44iKjEnoicdcfwsPPblZoouWBaOO7BGYH3XfZJxYL3LaOYEJpKFtT8RbH9yss2urxGonBaYF2TydFNq3033d6nkpNrEuOPXU2eY+jCYXqEx4Wi7x235nJJbm5Ja90ZxLSiWyaLl+DiaTcnJ5/tqzXUI7tqQ6SXdaA5bvQtaRk5m5hRGd2+iJUdMzdhIzk5E+vt4Olq7raP8usTSgRRYu9fWtHjMnVeiJR5N9bDfeafKR+yS6ZKW/W7TGNKxv22y3trgP+hG7jiKLT5HYpCn+Dg4t++yxj5I6ievnLbze1NMKidU1+Ptid3BvvC9MLH0PB2iYKtLFHC2LtSxNBCvTt0pP9JKbk1goHO/cPnu+/W/k6lrYJ6EtG5I+zx/ly1o+kM6AZb8/L1eefrBW6mJ9UisXFkm0rl6krMJfLREaIM3tQfNNMeWTmJkmQ+soVl7lrzrSC5rpU2VPm5Dat5rEp8Sy+7HZ87b56XFsrRsT1q22lnifoRSZaYTsb/NFJf6pI/MU4fCQ1tGheN+qdGyxospu/fNVPZlz0fCgfVveGuhPditmMubfajFP/E3VMkuLucdq7kebodO9cZIy54OGaRKZs8huxULuzl9mQm7TgpWG8/xHNVz9d0YOlzSFoSP3wE1zrR55YjpGmUmuzAy+qVyVzLeXKRxNAAAvhKvozPmemZw+sLvi8MFE94aBVDdlnsx4vQasH2fsvaYQrMxR9hItr5F450KGtAUA+Eu4QKJTZ0hsxhyJlZRRH7kMVz2dEnpSw1V3Rzo2Z54YW60B6+8Zfc9JhCszh5OZJPHtWqrZ7QAAv4lVVkts2iyJ1k9l1Pach6suCe3aFu/akB4btbxYA9aOjL93F+HKHGVmPiczGzkzXgIA/KWwUEPVNIlNncnEzl4IV90ddr+rJCd1PpFfaXmdBqz+rPwNDgOW6Xj4Sy2ns9sBAL5RVGw/JBWbPEViE+rsvlfIIdOhvXW/Pc6aGQcyjcxEz+/ScPW/WQ2KDgLWi3RhOoUR6wEAeS9WXhl/YrhussRqaglWHmA/6XxwX3yk9tGRdG9+s5ZXaMDalPW/a5yA9XqJP1Yb4hAAAOSlomINUxPtYBU104ox9II3DA/FW61a9ic15qMDZmyHr0p8iIahnITHkwSsNyYCFgAA+cEMtVBabocqqZ4QD1el5dSLV3aPhimrrTVezO3AWCxTv2qLltdquLo/p3/vCQKWmUTz10ILFgDAq0IhiZkBp81AuOZpwMoaLVU8DeilUGXGsurqiHdiN3PIDme8Qcn8gs9p+WKuWq9OGrI0YJnBRB/WQvQHAORecUm8dcpMb1VaFg9Wpl+V/pv+VB4yMhxvqerrFau3Kz7VzXBWc86tWt6j4WqnV6qk4JiAVSzxpwhTD1hm3kCLhjAAwHGYVihznTDzpxYViRQWS6yo2P63vdRgZfpOxYpLAzNJe1qYKbIKMtiSZ6Z2M61TQwO6HBQZHLAnlrf7VGnIyhEz/d4HNVz91Wu749g98T4tK5LZkN1Ua8YXmVAbn3KACTMBAMieoUEpuC8xgLmG11hhkT2Prxn/y/63CaummNa/I7dUzTKSmLvU9I868m8zt6l5yi9RrNHR+L/TMR9s+mzXcoOWX6V7Yud0eaqdtXH1WjMBp+ko5mreABOuoguWxB+DBQAAORHascUevDMAtmr5opabNVyNevmNHt2S9SG3ASs6a75E5y7injgAALkUi8XHmPI301/881p+o+Eqmg9v2A5ZifkIX+cqYC1aLtFpsziwAQDIMSs7T+7lgmmp+o2W72qwuivf3vyRlqxrtTgenS06ewEBCwAAjwgd2OO3P2m3xMfqvEnDVWu+/hFHQtY1TleIVdVIdM5CjmgAALxgeCjekpX/zEzQt2j5mZZ7vdqZ3VXIaly9tkGXq5yuEF24lD5YAAB4hN0XK5a3eWS/ljskfkvwTq93ZHcdsrQ8x+mL7ekJqiZwRAMA4JWQlV+3CiNaHkgEqz9oecwPLVYnC1lnOw5Z9dM4mgEA8Air47A9PpaH9Wsx8wfeo+VfWu7TUDUQlP1jQtYCxyFrQh1HNAAAHhHa76lWrINaHtOy4ahls4aqsaDuHxOy5jrbk6H4PFEAACD3zFyBbS3Z+m2m9aktUcwv3XlU2aVlh4apLnbKs0NWlbNXFtLhHQAAjwi17HPb4f21WsxwCCWJ/2/mKzbDN5l+Ur2Jn5nbe6OJn3VraTdFA9QQNZ5cyKp08sIYcxECAOAZlrtbhes1KK2l1rIchB3vzGiE2gIAwAsBq7NNrMF+N6t8h1rzcMjy2MzbAAAE9+K9b5ebl5tbgT+j1nITsnqoBgAA8oQZ4b3N1Uwza5ub1vRTcbkJWQ6bqGLUFgAAub5wm8FH3XV4/y615vWQNTZGbQEAkEsarlyO8H5Pc9Oax6m43IUsbhcCAJAH7HGxhl2NpkArVo5DlnMRnjAEACBnF213Hd4Pa2mi1nIbsnodvzrGE4YAAOSC1d8rVme7m1V+2Ny0ZoSay23Icj6zJP2yAADITchy14plesZ/j1rLfchyPBs2A5ICAJADY6PxaXSc+3Nz05odVFzuQ1a341czICkAANm/WB/Y67ZfNB3ePRKyuF0IAICHWft3uXm5JjK5nVrzRshyfLtQIoQsAACyGrDaWsUaHHCzyrebm9bQv8cjIcv5OFljo9QYAADZvFDv3enm5WYQre9Ta94JWY77ZFncLgQAIGusPjNsQ5ubVX7a3LSmnZrzTsjqcPxqWrIAAMjeRXrvdrer3EiteStkdTkPWbRkAQCQFSPDYrUecLPGXc1NazZScd4KWZ3OQxYtWQAAZOUCbQYfdTd00jeoNe+FLMctWdYoo/MDAJBx0YiE9u92s4YmMvk9Fee9kOW8JWuEkAUAQMYvzgf3irhr2LiRYRu8GbKcP7ZASxYAABlnuRu2wYwScBO15sGQpcnXjPjuaJQzbhcCAJDhgHW4RayBfjerfF+v5b3UnAdDVmLZ4ujVhCwAADJ7Yd69zc3LzWP/dHj3eMg67OjVsZgGLZ4wBAAgE6zOdrF6utys8qvmpjV7qTk/hCxzAIwMU2sAAGTiouyuFcv4GrXm/ZDV4niN4UFqDQCANLN6u8XqOOxmlX80N61ZR815P2Q536u0ZAEAkP4L8h7XU+h8kVrLj5Dl+H6uNUzIAgAgnazBAbEOHXSzymNa/kzN5UfIcj450vAQtQYAQDpDlumLZR4uc+4LzU1rYtRcfoSs/Y4PhBFCFgAAaTM0KKGWfW7WMCOV3kLF5U/I2ufmYAAAAGm6EJtWLHcTQX+5uWnNGDWXPyGrVeIDmo3LImQBAJAew0PxeQqdMw+q/R8Vl0chK3Ff11m/LPN0obvEDQAAjncRNk8UurumfjUxHR7yJWQl7Ha6Eq1ZAACkaGRYQvv3uFnDDAX/TSouP0PWLsdrDQ1QcwAApHIBtvtiRdyscmNz05o+ai4/Q9YOpyvRkgUAQApMK9YBV61Y3Vq+TsXlb8ja6XitQVqyAABI+uJrWrEirlqxvt3ctKaLmgtAyLIG+qk5AACSYcbF2r/bzRrmovtVKi4gIUsGCVkAACR14XU/LtY3m5vWtFFz+R2yzKjvI05WsghZAAC4ZuYodNkXy1xwv0bN5XnI0pRsYvWTjtYy95GZwxAAAHcX3Z1b3c5RaFqxWqm5PA9ZCVvdpHEAAODwutnfJ1brfjer9Gr5MjXnn5C1xfnB0kvtAQDg9IK7c4vbVqyv0hcroCFLBhgPDQAAJ6yeLrEOHXSzCuNi+TBkOb9d2E/IAgDA0cV222a3q3yJcbH8F7KanYcsbhcCADDu9bKtVayuDjertGu5kZrzWcjS1GyOAmdPMZinC8fGqEEAAE4kFpPQ9ifcrvU55ij0YchK2Og4ndOaBQDAiS+yB/e67V6zV8u3qDn/hqxNjkNWXw81CADA8UQiEtqxxe1aH21uWsNAlD4OWY5bsoSQBQDA8S+we3eIjAy7WcU0cvyYmiNk2axeQhYAAM8yPBSfo9CdDydmX4GPQ5Z5ztTRaGlWf4/bgdUAAPC98Pbm+BR0zt2jAet2as7nIUt3spmM0ln81gOIyaIBAHiaPfBoyz63q32QmgtAyEp4xPEWuGUIAMDTF9atm9yu0tTctOY+ai44Iethx4m9t5taBADAXBMP7rNbslwwPeM/QM0Rso5/QPV0UosAAETGJOx+4NGvNzet2UnlBStkrXccskxLFp3fAQBBv6Du2uZ2yIZDWj5LzQUsZGmqNs1TzpK16fzOyO8AgAAzD4HZ42K5YwYepWNz0EJWwkOOD64eJgoHAAT4Yrplk0jU1RBXZkzKm6i54Ias+x1vhZAFAAgoq/WAWB2H3a727uamNRFqj5A1/gHWTed3AEAAmc7uTz7udq3fasC6k8oLdsgyY2WNOApZpk/W6Ci1CQAI1kXUjOzurrP7oJZ3U3MBD1masofFxaCkVncHtQkACAzzdH1o/263q31Gr6+7qb2Ah6wE57cMuwhZAIAAXUC3bHQ7hJGZsu7L1Bwh64h/E7IAADjm4rl/dzJP1r8jcZcIhCzbvxyHrL5ukSgPSgAAfG5oUELuR3a/TQPWn6g8QtZT9IBo0cUWR1uKRnnKEHkhrEf9rOqwnFpfIOfPKJSzphbK8kkFUlsaonIAjH8OMbcJx8ZcxTIt/0nNBU+Bg9fcpWWRk41ZHW0Sm1BHrcJTLC2nTymQS+cUydlTC2RRbYEUnCBP9Y7E5OGWMbl/36jcsX1EDvZFqUAAT59PWvaJ1X7I7WqfZn5CQtaJ3KPlzY4Ovs42ahSeUVJgyTVLimXN8hKZXuWslaqyyJKLZhba5YPnlsm9Gra+8/CQPHCAIUqAwBsZlvCTm92utUnLl6g8QtaJ/NNxwjeTRY/pxaigkJpFTl25oEg+oiFpUlnytwBNC9h50wvtct/+UfnE3QOyo4t+h0BQhbdqXhodcbOKefTwjc1Na/iWFlDjXoH04Nini+3ODqeYWF3t1CpyprrYku89v1K+dmlFSgHrWOdMK5TbX1Et1y0voZKBALIOHxTr0EG3q31Lr6H3U3uErPH8xfGB2MEtQ+TGnJqw/P7l1XLxrMy0pBbqp+Wj55fJVzXAFdJHHgiO0VEJmwmg3dmv5QYqj5DlxN8ch6z2w9Qqsq6xNiy/vLpKplZkPv28cEGR/O/zKwlaQEDYtwlHXA9v9bbmpjU91B4hy4m/a3H0mJU12C/WQD81i6yZURWSH15ZKRNKrKz9zgtmFNotWiGL+gf8zGo9oGW/29XMBNC/o/bgKGTpwWKGtX3Q8UHp/vFWICnFYUu+fXllWvtfOXX5vCJ5y2ml7ATAr4aH4mNiuWOmP7meyoNR4OK1f9VytuOQNWMOtYuM+8A5pfatQqfMNGPrtxySBx5vkR37umVweExCIUsmTyiTy86ZJWcuqXf1+//zzFJ7mIdHW8fYGYDPhDc/Gn9i3p13JgbyBlyFrD9r+aijkGWeMIxE9AgNU8PImCV1YXnNMmdP+0U1XTXd+aR8/7ebZN+hvmcfs5bISy6e7/o9mNuFn76wXF7c1C0Rxi0FfCO0d2cyYz/+TgPWT6k9JBOyzGOophl04vhXtKh9cMbq6qlhZMwHzylz1Ceqpb1f3vXVu+WxrSd+KOO8FVNlydyJSb0P05J21cJi+U0z874CfmD19yYzN6G5Pr6F2sMzwrrTF2o6N6Mw3uH4ID1MaykyZ0V9gZw7ffyhGnYd7JFrPvLHkwYsY9XShpTez1tOLaETPOAHsZiEzG3CqOum6bdzmxBJh6yEPzjecFtrvAMMkAFmupzxdPYOy+s//Vdp7RgY97VV5UUpvR8zRteqqcx0AOT9RXFHc3z2EneaNGD9nNpDqiHrT1qczSsyOiJWVwc1jLQzTxRePnf8UPTpHzwgBw47G05kb2tvyu/rqoVF7Bwgj5lxHkO7t7tdzXTc4mlCpB6yEkM5/MvxAcstQ2TAyvoCqSg6+b25R7celj/eu8vxNv/6wB6JRFJreTVjZwHIU2by5yceTWbNN+m1kVG4kXrISvi94423EbKQfmdMGf95jbW3b3a1zT0tvbL2D5tTel/15SF7YFQAeSYWk/CmR5IZ1f37GrB+SwUinSGryfErhwbF6umilpFWC8cZF2t4NCL/WLfP9Xa/8pNH7GEejscMAXH3+vFHfV4wkWFLgLy7EO56Mj70kDtbtbyb2kNaQ5am9j26eMTp661DB6hlpNV4rUVP7Oywg5ZbJkh99Lv3yXUf/7Pcds8O2b6v2y53/HuXXPuxP8u7vvLPcZ/lmFFFyALyiRluyIQsl8zow6/U6yFzyOGkCpJc7xYtpzlKca0HJDp/CTWNtKkpPnnISrUT+0ObW+1yPIe7BuzR4U+kuphxHIC8YfphPb4+mSfhP6oB6xEqEONmoCTXu9XxK4eHeMoQaVU4zlHbNzCasd/d23/ybVcUErKAvGD6YZnxsNz3w7pLyxepQGQsZGmCb9bFJqevT2IGc+CExsYZI7CspCBjv3u8bfeNMjYckBcXv51bxepw/VBgp5Zr9RrIJFrIXMhK+KXjX3LoIAOTIm26hk9+fps2qSIjvzccsqSupvTkIWuE4xzwOqutNZl+WMbrNWDtowaRjZDlfHRbMzBp+yFqG2lxoPfkIWvJ3FopCKd/KIXG2ROlsGCc/mA9fMEFPB2wBgfitwnd+wrDNSBrIUsPNjMs7gOOf9HBvdQ20mJb58mfHDS39M49ZUraf+9zV80Y9zXbOyPsIMCrIhEJbXxIZMx1v837tXyYCkTWQlbCzxx/ezBzGY6OUONI2QMHxsZ9zasuX5TW32lasF56yfyTvqZtMCo7uwhZgFeZEd2tPtdPH5sBtF7R3LRmlBpEtkOW6Zfl7P6Imdm8hQ7wSN36ljEZGjt536cLT5suZy6pT9vvvO75i086dINx774xoUcW4NGLnRlw1PQPdu/axPiQQHZDlh54ZjChO52+3uKWIdJgUAPW33aO/6Xyv68/VyrLU5+0ecHMGnnHNSvHfd1tW4fZOYAH2R3dd2xJZtUv6HXuj9QgchKyEn7o+EDv6xGrt5taR8p+sXn8QDOzvlL+530XSUlR8qOwN9SWyXc/9FwpLjz5Ng72ReWefdxNADwXsPp74wOOune3lhuoQeQ6ZJmBSR1PUGjt302tI2UPHBiVx1rH75t11rIGufmTl8mUunLXv2P5/Dr5xWefL1Mnjb/u99YPSYQHCwFvGRmW0GMPiUTG3K5phml4eXPTGjpZIiUpT7TWtvnWsbolV8/Uf57pKGQN9El0xhyNdyFqHynZ0RWR1Y3F476ufmKZvOTi+TIyFpXmnR0ahk7ec6qmslje8YqV8um3OLvduLs7Ih+5q18idMgCvCMalfBjD9otWS6ZZvLLNWBtpRKR85BlaMgyg2C9ydGLzaCkxSUSq6qh9pGSA31RmV4VksV144/wXlwUlvNXTpVrnrdIpk+utP9/RFORCVwVpYUyo75SzlsxVd744mXyyTefY3eaD4WcTZHzrr/2y65umrEAT13czJOEyY3P+AYNWHdQg0iHtE201rh67QZdLHeUs8orJXLWhdQ+UlZeaMnvXlYls6rDOfn9Nz02JJ+/d4AdAXiI6eSe5IjuN2rAehc1iLQdi2nc1vccJ7v+XrG62ql9pKx/NCZv/VNfTqazuXffqHz5fgIW4KmL2sG9yQasu7S8jxqEV0PWzVr6HP/ifbuofaTFkx0ReeMdvTKYxcmZNxwak+s13I1xlxDwDDPhc6h5QzKrmieyXtbctGaMWoQnQ5YenD26+KnjD8PhFrGGaAVAeqw7OCav+X2vdAxmPmj9a++o/bv6R+npDngmYPX1SHjTw/F+v+6YC9GL9RrWRi3CsyEr4duOX6kfBGvPTvYA0sa0Ll3V1C0Pt2Tmy6g5dX/74UF5wx+y22oGYJyAZSZ9fvQBkTHXn33TFv1KDViPUovIhLT2Fm7bfGtr3ZKrL9V/znT0wejvk+j02QzngLQxfbN+u3VYuodjcvqUAikKp+fZjub2iLztT3267RGmzgG8ZHREwuvvE2toMJm136MBay2ViLwIWYaGrCFdvNRZ04B+iSgslFj1RPYE0sbcLXi0dUx+uXnYHrtqwcQCKSlILmxt0XD1mX8PyKf/NWCP6g7AQyJjGrDuT2YsLOPbGrA+RiUik6x0b7Bx9VozeuMuLVMcrVBcImPnPlfficXeQEaYWXUumV0kz51dKOdMK5T68hO3nJpxSje3jcl9+8bk9m3D+m8GfAY86chgo51JdaUy8xG+kBHdkXchKxG0PqKLzzj+rDSeItGpM9kbyIqaEkvm1oSltjRkj7M1psmqbzQmLX1R2dkVlWGGbge8LRaT8MZ19sTPSXhMywUasHqpSORryJqgi71aHE0YFystl8jZF9GaBQAYV3jzerFa9iez6kEtZ2nA2kstIhsy0uNcD+BOXdzkOOkN9ovVup+9AQA4+UVry8ZkA5YZZuhKAhbyPmQlfF2L4/vdod3b2RsAgBNfJ7ZuktD+3cmsOqrlpRqwHqEW4YuQpQezGQTrN05fb0+103qAPQIAePbFantzsjOFmE6Wr9Fr0t+oRfgmZCV8ydWbMfNNxeh0DAA4JmDt3pbs6u/WgPUrahG+C1l6YD+kiz87fb3dmtVC3ywAQFoC1mf0OnQjtQhfhqyET7h5cXjnFlqzAACpBqxvasD6L2oRvg5ZepDfLy5as2RoMNmOjQAAApZxs5Z3UovwfchK+ISrN2X6ZkUYiBcAAnlhevLxVALWb7W8Tr/gc0sEwQhZidasuxyvMDIsoT0M6QAAgRKL2eNghfbuTHYLt2m5hulyEKiQleBqIk47ZA0PsYcAICABK/zEo6l0F/mHlpdpwBqhMuEV4Wz9orbNt+6pW3L1GfrPhU4/cNbosMQmTWEv5TFrcEC/le6wv5mGWvaLNdAnUlIqUlhE5QCIM5M9b3pYrEMHUwlYZjR3vpnDUwqy/Ps+rOUF4nDORDOcgzV9jsSqathT+WZ0REI7tkrowO5nPC1qtR8S2b1NovMaJTpzHvUEBN3YmIQ3PiRWZ3uqAWuAyoTXhLP5y9o233qobsnVs/WfK52uY/X1SmzqTPZUHn0jNa1W4U3rxOruOPF+7WgTKS6RWGU1dQYE+MtY+NH79VzRScCCL4Vy8Ds/rsVxk67V0ymhg8znmQ+swy0SfvCfEtq22f52Ou7Bt72Zp0iBoJ4vBgckvO7fYvV2E7DgW+Fs/8K2zbd21y25eqL+8xzHH0b9lhM1rVnhMHvMiyfLjjYJP/6I3ffKGh11vmI0IrEaPRTKyqlEIEjnDA1W4fX3izU8mOwm7tTyQgIWvC6Uo9/731qc34A3/Xu2P8He8tqJsqdTT5T3xZv7e7qS/DbbT0UCQTpvtB+S8CP32kP1JMkM0/B8AhYIWSegHw5zA97VdAehA3vE6upgj3nhJNnZbn8LtZv6k++saosVFFKhQFAuOHoeD294KJVuAr/UspphGkDIGt/3tTzq6s1u2ci8hjn9BnpYwg/fa7deWZ1t6dmouV0IwP8Xm+1PSKh5Qyrn8Ju0vJqAhby6bubylzeuXnuBLu52s050zkK7IEvM04Kt+8Xas0Os/t60bjpWP1UiS0+jjgFfn0MiEn58vf1gTAq+puW9TJUDQpb7oPVzXVzj/B1bEjnzAolVVLH3MslMbbR/d3z05eT7Tpw4YOn+i5x2rkhBAXUN+NXwkH17MIUnCI2Pa7j6FJWJfOSFK9z7tbxQi7NHzMzcVpvXS+SMC0RCIfZgulN3Z3u8/9vhg3YrVvp/QUjOOGuB7KhdIIcGqW/At+eSni4Jb1yXyvRo5gT0Zg1YP6A2ka9yPiZC2+Zbe+qWXG0eMbvc8Yd3JH5LPjahjj2YDubpTQ1WoSceiw/DYG4LZqDv27S5U+WmGy6Rt1wxT+ZNLJDbnqRrBeDLgNWyLx6wxkaT3YT5CmYmev4ZtYl85pV7Nd/U8motZzpdIbR7m8QmNTBieNLfEaNitbVKSE+G9lQ3GXygoGxCtXz4tWfI6nOnPfWzi2YWyksai+U3zcPsC8AvzJ0G08F9z45UtmLuLZoxsO6hQpH3Xzi88kYaV689RRcPuwl+sdJyiay6QCRMvx6nJ0DzVKCZhDV06ICjUdlTUVheJtdedYq898ULJGQ9+1DrHYnJFb/oltb+KPsGyHejo/agxFbH4VS2slvLFRqwGBgRhKwMBK3P6eJDrnJDw3SJLFnJnjwR02LV2a7B6oCEzNM9yTffOxYuKZarL18mH3vFYiksOHm/uX/tHZXX3d4rPDIE5PGFxIzgbm4PDqXU0dJ8yTbT5LRQo/ALrzUBfVLLai3zHX+4ze2uiZM0bE1jbx4xPCSh9kP2bUB7IubIWFZ+baioSC69qFE+c+0yqShxdmidP6NQXrGkWH6xmduGQD6y+3Nu3ZTqgzJmFPdrGMUdvvsC4rU31Lh67bm6MPfinT86GC6wbxua24eBpCHK6urU0maHqhQfl3bNtFxdeekS+fg1i6W02H1uHxyLyYtv6ZEdXUwWDeSNaERCWzZJ6ODeVLd0o8THwOIEAEJWloLWZ3XxYTfrmA7wkdPPC8awDqMj9uPRZuJs+1ZgT2dORsI3fa5ectkSueFljePeFhxPc3tEVv+6R4Yj3DgEPH/h6O+V0KZHUh2g2PRdeLuGq+9RoyBkZTdkmQntHtKywlXQmjJdIot91j/LtFL19Wrpjk/CbILVQG4nVa6ur5U1Vy6WNz1vjoRD6TuEfrppWD5xDxNGA56+aBzcJ+GtG1OZf9AwE9G+VAPWXdQoCFm5CVrLdLFOS7GroFU/VaINM0RKSiWmRcLh/NgTesKyBjVgDPTpt8O++DfEvp6cB6qnjxRLZs6fJu9/+TK5dOXkjP2at/2pT/6yk/GzAC+eo8JbNtr9YFNknhw0QzRsp1JByMpt0HqvLr6c0kYKiyRWpDmtuERL8VP/fupnBfrfCwvt14mVoeowt/LMLT4tplO6ZZ7A0WINJ5aDA6k+lZMxhWWlcv7Z8+SDL22UWZPLMv77eoZj8sJfdcuBPoZ1ADxzoejpkpCZf3Aw5S99t2q5TgNWL7UKQlbuQ5Z5f3eIi9HgU1JQoIGrKB64TPAKF0rMtISZ+fXMWFzHC2EmQJmn93RhRUbjY0+ZZnTzs9HReLAazbOWGf07G2Y1yJorFsp1F8887hhXmbTx8Ji88re99M8Ccs0MLrpnu4R2bElHv8+PaflvJnkGIctbQcvMnfOoFsZoyLCyidVy8dlz5V0vnCfT68py+l5+s2VYPvh3+mcBOTM0KOHNj4rV1Z7qlkyr1Ws0XP2eSgUhy5tB63xd3CUemGvRb8ztwBWnzJS3v3CBnLVwoqfe26f/NSA3bxxiJwFZZoZlCD35eDpmhdgo8Q7uT1KrIGR5O2iZkeA/xy5LXVFFuZyydLpce+kc+Y8Vk8Xy6FEQiYpcd1uPPHhgjJ0GZMPIsISbN9jzmqbBWi1v1YA1SMWCkOX9kGXe6x+0XMFuc6+itkZOXTZNXn3RLLlwWV3evO+OwZi85Nfdsr+XjvBARi8Ghw7aTw+moQ+pmb7hHRquvk+tgpCVRzRo1ejiAS0L2XUnFyoslKkzJ8slZ0yX6y6aIdNy3McqFWag0lfe2iN9I/SXBdLOtF6ZoRkOp2XKwG1aXqYB61EqFsizkJUIWo26uF9LNbvvqB0ZDsvk6ZPk1MX18qJV0+TCZbVZfyowk8xE0m+8o1fGaNAC0vdlzO57tTldE8f/VMtbNGD1UbNAnoasRNB6vsQnFA0FdceZKW2mTq+VUxdNluetnCzPWVIn4bDl67/5183D8qF/8MQhkPKJf2hAQs0bxeo4nI7NmQ/l2zRcraVmAR+ErETQer8uvhiEnVRUWSGT66tlwcyJsmphrVx22iSZMqE0kAfsjQ8NyjfX0Y8WSIo97tUOCe3amuq0OEes1/JKDVhbqFzARyErEbR+pIs1vtgToZCUVlXIhImVMnNKlSyYXi2nz6uW8xfXSnlJAUfqUcz4WWYcLQAuTvbdnRIyTw72p2WwdXPj/ktaPqoBa5TaBY4v36/eb9TSoOUy92ccS0qqKiUWGZPRoWGJjkUy9iZDxcVSVFwkJeXFUlFeIhOqS2RaXbnMbqiQhVMrZMWsKpkysVQsiwPSic9cVC6dQ1H5x27O7cC4RkcktL1ZQgf2pGuLZkNmapx/UrnAOFEj3/+AxtVrK3RhPuynuV23pKxYvvOpF8nZs0olEo1J/+Co9A6MyOHuYWnpHpH2nhEZ058PjYn+txFdxuyZJQZHIlJa9PS4qJVlhVJYEJLK0rBMKC+UCfr/66qKpKFGQ5X+O0R6SjuzL17/h17G0AJOxNwaPLA7PiXOaNq+kPxE4sMzdFHBQABCViJo1eviXi1zXQet0iL56kevlIsXVHA05BkzpMNrb++Vx1oJWsAzTuzdHRLaskmsvp50bdKMTmqeHLyV2gUCFrISQWtBImi5HmmzsKhAPvX+K+TFKydwRORh0Lrm1h7Z0h6hMgAz3+D2ZrFa96dzq00SH7m9jQoGAhqyEkFrucRvHbpOS+aO3vve/h/yuudM4ajIM51DMbn29wQtBFhkTEK7t9tPDko0bZ8DM76DGZrhFioYSI6vJlxu23zrobolV9+l/3y5lmK369/74A7pCJXJBYtr6YSeR0oLLLliXrHcvXdU2gcZFR7BYjq0hzeuE6v9kN0PK01u1vIiDVjrqGEgeb6MEo2r156li79oqUpm/edcuFS+9ubTpKyQpJVPTIvWdb/vsafhAXx/8m5rtZ8aTNOQDEeYJwffpOHqz9QwQMg6WdC6RBe3a0lq1M4FC6fKtz9wkUyvZoyqfEJnePj+pG06tZtw1dWRzs2abybf0PIxpsUBCFlOg9ZzJD79TlItWtU1ZfL1G66Qs2eXc6TkETO8w5vu6JP79jOOFnx0su7vjYerttZ0b/pBLW9mUmcg/cJ+/uPaNt+6u27J1X/Tf75ES5nb9YeHRuX2O5ulYNIkOX12JUdLnigIWXLlgmLZ0RWRbZ3cOkS+h6s+CT+5SUJbHxdrIK2NTN1a3ivxJwcPUtNABj6/QfgjG1evXaaLP2mZluw2LrxoqXzhDadKdXGIoyZPmC7An/33gPxowxCVgfw7OQ/0S2jnFrEOHUxnh/Yj/k/LhzVctVLTACErHUFrfiJozUt2Gw1TJsiX3n+pnDGjlCMnj/zfY0PyuXsHhOcOkRcn5f4+Ce3eFh/rKv3hyjwt+HYNVw9Q0wAhK91By8xzaPponZHsNsIhS974/54jb79sloR5+DBv/HH7iLz3b30yGqUu4NGTcV+PhHY+KVZbSybClRnz6gYtN2nA4lMAELIyFrRM3ywz/9bVqWxn6fJZ8rnrz5UFdYUcRXli3cExeeufeqVriDYteOgkbJ4W3KXhqv1wJjZv7pV/XcvnNFz1UNsAISsbQct0+P+ilveksp2iogK5/vUXyhsunkarVp7Y3xuVt/yxl7G0kPuT7+GDEtq9Q6yezkz9il9IvN/VLmobIGTlImy9VeJjw6Q0GFZj4zT59NvOl2UNxRxReWBwLCYf+Hu//Gn7CJWB7IpGJXRwr1h7tos1OJCp32LmcH2vhqv7qXCAkJXroGXG0vqVlvpUthMOh+Sal58t73zBXKniCcS88K2HB+XGBwfpEI/MGx6S0P5dWvaIjGYs3D+u5SMarn5PhQOELC8FLTMrtJlp/txUt1U7sVLe9cbnyEvPqKVy88Cdu0bsVq2eYaIWMnCC7eqQ0L5d9q3BDHRmP2K3lo9r+TGd2gFClleDVpEuvqzlHenY3pKlM+T9rz1Lzp5dRuV6nOmn9c6/9MmGQ0zFgzSIRCR06IBYJlz1dmfyN7Vo+byW72i44t43QMjKi7D1Cl38r5bqdGzvwguXyHuvOUUW1BVRuR42pt//v3DfgKzdMMTtQyR3Mu3vFWv/bgm17NcDKqNTOplw9QVzntJwNUjNA4SsfAtasyQ+zMP56dheyLLk8stXyNtfvFjmTGTIBy/7x+5Ref+dfdLN7UM4EY3aI7KHDuxO94TNx9Ou5UtavkG4AghZ+R60zDAPH9LyCUnx6cMjwgUheeELTpM3XLFA5tUStrzqYF9U3qdB68ED3D7ECU6cPV1iHdwrITMq+1jGjxPTcvUVLd/VcNVH7QOELD+FrVW6WGv+ma5tmpatSy9dLm++arEsqWfYBy8y7Vg3bxiSL90/KMMRWrWgRoYl1LJPw9U++9ZgFuyQeMvV/2m4GmYHAIQsvwYtk4T+S+ItWwXp3PbZ5yyU175omVw4v4KK9qCdXRF53539dIoPqkgkPmhoy36xOtsy+YTg0TZr+ayWX2q44sADCFmBCVvLdXGTljPTve258xrkNS8+Va46vU7KCtktnrrO6nX1e+sH5RsPDdod5OFzGqSsjsPxVqu2VjtoZcnftXxVyx0arrLefKrnt0pdPE/LIi2TJd4HbJuWP+v76eDAAAhZ2TgRmb5a/ynxvlqV6d5+RUWJXHXlqXLNRbNlPv22PGVrR0Q++s9+eaSFxgVfBqvOtngndjOm1ehotn6zOZh+qeUrGmTW5+icNkniLfVv0XK8x6BNyrxZy0f1Pe7nYAEIWdk4MZkBTE1/iVdn6necsnKOXP28xfKCFbVSWcSu8opfbh6WL90/wBOIBKtUmJahH2j5Hw0u+3J4HjOt8maE+AYtrVq+p+VOLWa26lotZkaMN2mZqaVLy0v0/f6DgwcgZGXrJHWexJv4V2Xqd5SUFMlzL10uL71wjj24KTst9zoGY/LZe/vl91tHGFcrn0TGxGo/rKGqRZeHMj2e1fE8aoKVlp/nehgGPXeZh3ke0FJl3o8JU8d7elFfV6qLG7W8UYt5zxfo6x7mYAIIWdk6WZl6NIOYms6qczL5u6ZMnSgvuny5/MdpU2RpPQOc5tp9+0fl0/8akCc7IlSGV5l5A9taxWrTYNXZbo9tlWXmluCvtXxTw8m/PHTOMu/FTCX2Gy2rE/82XxbNQMwFiUBlQqHpkzWm65hbhtdq2aDlVKbwAQhZ2T5xmdTzei0fk3jze0bNmDVZLrtkiVx+egOBK4dMx/hbnhiWrz84KO2DXHdyztwG7O60W6rs0teTq3eyU+K3BH+ogaTFY+eqK3Rxh5Z+LbP1/bXpz27Vf1+VCFem0iYnrhF/0v9+hf73Gv33rkQIe5n+rImDDSBk5eIEZprXr9fyvmyEracC18WL5TINXMsaGHsrF/pHY/KdhwflRxuGGVsr20xrVcfheKjqaMvFbcAjzC++NRGu/ubV1h49R5mx/66T+ACnb0387EjIulp/dqv+/7P03/cnVjFBbLf+zNw2fKeWW/T/v5wDDzi5Aqog/RJ9Lb6iJ6Rv6/LNWj6gZUomf+fe3YfkBz8yRb9+1tfIeectkotOnSLnza2UcjrNZ0V5oSXvO7tMXrm0RL7ywID8YduIRMlamTE2Fu+0boqGKmsg5wOhP65FP31ys37+D+VBDZ6eWP7zJK8xHeFNSDTns86jXm9C1koOQmB8XH2z863R3Mt7lZb3aFme1RRdWCCnnj5XLlo1Wy5YXCsL6hgWIlu2tEfkxocG5W876RyfllBlbgF2tceDVW93tgYGPRnzhKDpMP4jDVbr8uyc1Cbxpwcv1vd+V+JnR1qyTGA0twtP1XJQyxv0NX9PvOZsXdynpVt/VsOBCYxzDaYKMk9PRiOJb7k/0pPUpbp8t5bnZ+XaNDomD92/1S5mvImGhgly5plzZdXSBlk1r1pm1nAIZMqi2rB8+/IKeaItIv+zjrDlyuiohqp2e9Jl01nd7lcV80Ttmc/yn7T8WMtteTzdTUciZB1vrD8zVIPpq2XGBDRDN0w46r9VJZbMoQgQsjwZuP6mi78lHp82Ycs8rVOard/f0tIpt932sJb4/2+YMkHOWjVPzlo2RVbNrZRpVRwS6ba4jrA1HjMXoGmpEtNaZcqAp67hZnfdJfFWq1/7ZPTz7VoWSHz2ituO+W//ZVq39Bz1//TfP9TyBYk/HWmcmlhu5agFHJzbqILcSjyxY4KWeSpxRa7fT319jaxYMVOWL2qQlXOqZemUEikt4DBJ69WtMyI/fGxIbt06LCNBHPlheEisni77lp+97Om0bwd6kBlD6ldafqGh44DPzjvmwZxvSXwS6kWJIRqO3C68OBGyTAuWua0Y0jJLy14t6xPnqffra77MpxkgZOXTic98qzQD/r1SiydmjA4XhGRh4ww5ZclUWTG/VpbPrJQ5EwslzJGTsrbBqPx447D87PEh6RryaduWCVQmTB0JVKYv1Yhn77CZnWCepjOtNubpuT0+PteY24SmNWvSkcCkP/up/vsFWq48Mp6X/sy0cl0g8anETDO3eWpSd6LM09e08ykGCFn5eAIs18U1Wl6r5Xyvvb/i4kKZv2iaLJpfL4vnTJTGaRXSWF8iFTzFmJTBsZj8pnlEfr55yO4sn5eiEbH6++J9p7RYdukVGR3x/DvXck8iWP3aby1W45xnzBAOZigHc9C9Vv/2n5zktVea4KmlRMs79bX/wycXIGT54URoOp6+IhG6TvPye50+vVYWLZoqc2dOlDlTq2Tu5FKZW1fMvIsurG8dk188PmwP/+DJsbbGRsUa6Lf7UIkJVWY5oMuhQa90THdC37T8WcvvtNzhkz5WyZ5fPi3xyaElETTNFGH3HxnfS/+7Garh7Vpel7hefEf/2/V8UgFClh9PiIsSYcvcTlyUL++7bnK1zJlTb4evudOqZebkcpk+sVimVxdICf29jstMPn3rlmH55RPD2Z+yZ3RErMEBkcH+eKAy/7aX/fnQMnUiZvR1M8K5uf11Vx4/FZiJ88prJD7Z/ZGBk4e0mLG+zNOH5YmfmXGybtB6+w41BhCygnBiPEUXV2t5kXi8hetkauuqZdqMWpk+tUam11fJ9EnlMq22RBqqi2RyRQG3INXjh8fktidH5PZtI9Lan+IA4tGoWMNDdl8pu7+UaYHSYg0NPL2M+KI3vgkKZuBMM9zCHzUcbOGscdLzSZkuTNh6ofm/Eu+rZVr4ntTyB4kPstpFTQGErCCeIKcnTo4mcF2ixTcTGZaUFUvDlIkyaVKlTKqtkIa6CplcUyqTakpkQkWhTCwvkAllYZlQEpbCsL/3s7kZ9+CBUbldA9cft4/YrV3x/xCLtz6ZVibTqXxE/20v48X+twlUJljlb0uUE2bi4ju1/FXirVWDnB0AELKQzsBlnkq8TOJPCZmBT2cE5W8vKy+W2tpKqamp0FImNVWlUl5WJBV2KZTy0kKpKCmQitICqTTL4pCUFYWkqCBk37Ys0lKmJRzK3nvuG4nJSCQmg6Mx6RuO6DIqQ1r6hvTf+v/7hkald2BUevp12T8svX3x0t7RJ5u3t8WDVWQsqIf7rkSoMmPP3amh6jBnAACELGQzdC3UxX8kAtfFWqqpFQeBTYNZuEBDWVmBWAVPNwyWalArdNpkFonKyGhEhkYi+kGLyuDAsIyOxWRsZEQGh0apZPfMrau7jxQNVbuoEgCELHglcJl0cIaW52m5SIuZh6yMmoEHmY5h5vbfvUeFqhaqBQAhC/kSuszggmaajHO1nCfxQQcbqBnkgHma7b5EMSOtP6Shqp9qAUDIgp+C19xE4DLBy7R6macYi6gZpJF5Sm2dlocTZZ0Gqp1UCwBCFoIWugp1sVzL6UcVghecMvPdmdt+G7U8lghV2zRUMUc2AEIWcJLgZcLW0kRZJgF6khHPYkZRf/yoQGWWGxhbCQAhC0hP+KrSxZJEORLAFibCF8da/jMjoe7S0qxlq5YtibJVw9R+qgcACFnIfvgq1sUcLQu0zNcyN/FvU2ZpCVNLntGdCFJHys5E2Sbx23wjVBEAELKQHwHMPOFoWrqmJ8rMRJl+VJlMTaVFnxbT4nRAy0Et+xLLPUfCFLf3AICQhWAFsZJE2JqUCFz1iX83JJZH/9tMahsKSNWYod7btbRpOZwo7YnSmli2JILVfg1QfRxNAEDIAlIJZZUSH9m+5qhlzTE/K0ksTSf+cokPymqemDT9ygoSS3Obs/SYzRcn1nXCTFI8fNT/N0/UmdtxZqBN01HcDPven3idKQNazO24nsTreo5Tjvy8Q0NTD3sbALzr/wswAGEHYF9A2yCEAAAAAElFTkSuQmCC;" parent="1" vertex="1">
                    <mxGeometry x="579.52" y="800" width="111.55" height="80" as="geometry"/>
                </mxCell>
                <mxCell id="4" value="" style="shape=image;verticalLabelPosition=bottom;labelBackgroundColor=#ffffff;verticalAlign=top;aspect=fixed;imageAspect=0;image=data:image/png,iVBORw0KGgoAAAANSUhEUgAAAN8AAADiCAMAAAD5w+JtAAAA/1BMVEX///8dMV8goNq8vcCLwT/zkx+5ur0Am9gaL17zkRPzjgAAIFYAmtjzkhnP0NL++vn5+/jt7e7S5vWGvjKUxVbK4bL0nUSt0+wUK1wAHVUAI1iEvi6IwDgAGVMKJln1q20AFFH1+PzIycvp6eorO2Tk7virrrm8vsbc3d7U5sJVrd7e7NLm8N2+2qGIwOU/ptzC3PCOwkmr0IF+hJdQWnmXm6llbYWGi51yeI797uX50bXzmj773sz86uClzXW21pTw9ut2ueKkp7M+Sm6dyuldZX/3uoz4w5v1pl6eymmAvOSx04xFUHDa6fUyQGfO47oAAEv0o1UADU72tID5zKqwQIwLAAARGklEQVR4nO2de1va2hLGoUoJBAIULwEkAipQrbdykdY7iJdutbun/f6f5SQgFZKZWbNWErDn9P1rP7sx4efMmttawUjkr/7qr/4PVK3uPD1Vnf/KLvqjBKjq09H6wfXuYTw10gf7f2WP88srF58vV/c+/cmk1ScbzOaKx+PvJoqP+FaWl5c3NvL5Umlj5eLy+x9IuXN0sPsuNQXm4Ztow6Y8frj8eLXoj8xW9ejb4bu4lw3mm0Aur1x+/APsuHNziKBRfBPIh9WrRQNQsuFSOJuI740j7qzvCuDEfCPE/MUbdNQP1++EcCw+B7F0fHm1aKAZrR9y4Lh8tvIbF3uLhpqoekMEFEU+x4grHxdN5qh6w3JMab63QShHJ8fnED4s1kvZ606NzyG8+LQwuiNZOnk+h/DzYrLFzm5Klk6Fz46l+dUF4N1I206Vb3m59DBvJ33aVcJT5LObqf254qkZT51vvibcUTSeHz67Lp3XKlxXpvPDZ5vwYh6BtPpNIWz+VsoH33L+OHwfVfNNu+VNpVLxw8PDJ+cmF6VSKZ/fkAbc2AjbRz/Ik9lY1wfrR0871erv21ztfdy//LyStzHlKEv/hIq3LuObzpzi+ubDDnG/q4/7D8tSliw9hLgID/h48fjhtyMK7VWfVi+O+YwboS3C6jV36cXf7a7z2F6U3btcKeWZgMvh9BRVZmSJpyThXvTp8rjEM2L+e+BwNh6vWUi9u1GBG2vvgmfEUvDV2g7LdPHdI3+Pye4fcwhLl8FQ/dbOIYPu3bcn/0/Krq6U5g7IwIvHD9Qdc0bZ7wzCQBMhwzlT1wHROcquLgsJAwSsio23G4BnTiu7L0yIgQFWRc4ZP/QZVSBdfRYRBrQGhXkvflAV30VBeyuCUBpMmhBULfHDD0E8BVL2UrAKSwEk+m80Xiok4421t0z7aMl3qXYjKKlDWHnTyl7QJiz5LLaPSLz4bpjGG2t/gzLhxvGVn5s/0UvvICAGUnvHJOCDj1vTmSG1HhgDqasHKo7mfWQJMnTGQ4ubHpGLUD2IkrHlMMB6TCgyUZSu1G76RODNI7JMa59w0Y0VpVtSi2/eeJHIKmHBvFIlSiT2+eNFIt8pQIV97KO3hReJfCQAj6WHhkRPtBg8GxBfg/nPsjcjUsPhYvBsF8UBS5IeStVlKni5ptGod1rd4bA90bDbbXX6jVpzK8e9CxFkJD2UiJ2SeS9n1E+Gg21TL+hFy5yVVdQLhaK2PRie9GtbjJvto4ByZQy+PytVtTT7vWhR1y1T07QoJi2qaaal60WzfVJvCmz5Dw4o0Ung86Q4u+bcqneLlaJJgLk5Hcpy5bnbqW1l0NteYGtQptBGgwu3Y8jVh8WCySWbxTSL5fKgV2/CjNkVrJvgJ8EPqHfusn7e6EULJttuIKSlFwatBuSsn1ADrnBDzC7qnpzQWWsXLV9wL4g2Y7Rb9yKiQbTE3NxFcwMnthjtsj/TzTCaeuWx737EBdrv8gyIxpYb4Y/memW1VYerOHQ/5OoYMyBrXoge/xAvvkbUCpguGi00PI9BC7UNjgGx1B4XJfZqrxCYZ/6Wtg0Emc8IYJ5hQKxvEHrn1qAYPF7U6gGPymILkFGlYcHzUPBzTSvolTeS7nXPCN4ric9wYeZLCTaIjCBygleaBqd5JIaKRxWI+USFSzMaivVg97R1hYVQQRGzgwVPOrPnnsPBi1ZqyBORLL9xQfMdwHyisrodfF4YSdOwJ2J1qGBYiJhPEFw6hXDwotYJ+kwkxNApAsntcXqXqFkOJbbYqhj4Ux9gAx5TnxSJLgLzDUNafFFtQDx1DzYgtSWIRBeB+Rp6SHjRIu6eEcyAG8QoDRtLkHiRdmjm05vUcxEDEkUo7J6C4FkLK7hEzTb9i4WPOeOn754Q89G5rxdSbrBrsw7NB4/s8RQIu6egdMmFhhe1SPd0vicAjqBXyPWIe9J9UV3FPTVNM01nakglFvORxotELsE+CavRkOgpaGu78tFFs4rRQbvdHmxHizpel+ueyYRb8KxpA9kug5O7IDlE5N3T1E6Ml64gZ9R7AwRRK4vn9nCKQAZp1yrRpVmRxhvMLquscRKFGn9R9HS0CjsoPMqG8b7RT6jLJndN82405Prb3lVcqIv54DYJ7nLh7XaRe7Zk/bMMNuSZvntoynFPpM+FMwSSHQQPGEiW1tozcqNcT5+5ldll4GFbgtAChLPDteAB/P2Tl4+NNOS2GtvTvgDb2a0smOLBBagUPXOy2YHgi2y1XxezFuXteoIRFFqAO+DySwl2HJqyYyXUP0dqVSa3wwYvboEHY6AeAs5+opm1UZS0nyAs9ieZAhhbg/oENxHeC8HJi3Coq9D70U1PfTwk1p65u/xgDQpMYcDwkhLtGDXkq09tG5uJje84CqNWi4kX+QwtQG8Tj5x3Ef0WFfjs8rNFxY6GswZ18ncwLXBQ6A0w8Ja7cMvIUJpNFM0OsVHQr9jRk4sHL0BvgAHn8nFBcaYQP19MqGt93DVOdGIu6BbcBHrm9GD4FJ+W2FLtbjXd7KAnXob/CjrbacE9hNs/4PAp3JDOyNYvU4RFs4eMN3PUXNCtf8AS9Mp1FVydiYP0s5/RrqUP+mCokTkCBpageXcABflEe34R39MlU0eNyBU4JnQfyoYP6zKOu/T9Dnc1q7KNr0SGwB7QvQ0Bzl44p5Xk+3cAUde7DfxIlkDgtz24EwTY3LIOmwWyb6uZZWQlMgTtlLlPo8Hpj/NyUVDjXU2PtiSywpSgHt69UQ2nP85ZyFoADvpCaBW6KoTgFNQ1Q4P5WEdZZScUFKFZGcpHU7AFdA2x4eELKw0pDbBRmWVpG8IJcHZEAb/swLp91VeK98qyTuQiDXhcyzWCgWe7vPsHa0BbxShj9PmqPZBvtoAB+Rjly0iBb3Bq5bZExgd3IVybLGB5xjutazcRwR88M4t8E8J8swWaL75Ioxw0n23CHreiAflcHfyu8y3cLqXYfJFO8IBRvc3sIq5Kea9cZ12P1gFJvBvdCgHQeuTF0ewqpIC/5KcVwtlW6/ENfY9yJ4RDTEXWHsucFMbh67LgBMVctTUMfBFqZbWWwqOmAUn2LnXitICaxGcoIpHz+01AX2auqb0HtCTLF8n1igHXMoxd6l/JhFfJWT7j/RIgaT77RsNg3/AwB8I0f5eMeZXg8Cm9iNpoB0oo3ii7TQB8sVm+JsT3XnEi0nisBPcOkngffhPgS5/Omn0L5FMe2xnDQlCRRtNFn+IHgy8H8vkIzs1WVA+GUHhM6zQN8K3NXgPz+Zos5/qDQBai6XmBbFYZiC9x77oICi9L7E3GHFhnZBrDcgA1jUWHuXMovCQ2XVfVQEAuX+1fJMo1e//x3fxW6GVyBqWH5B2Lj9titqwy5su5E78LUadT/FeQ75frKjABshPEtqZp6LXV/rPiu9RjCTZzwfSXPHNdBSdAZgA1Ks5xRtzYmfqjjxmbIMDcQ3zpL66r4ATIDKAnThQpkieO+ur9L33kCQyf6Zj7l53zE0Cjo89eIP3IUF6F+EtWjs6h5edOf7ZAPl6AMV76vgrZjSoP2TSdui0YXhI/PdeBAZQXYE4mh9AqpAVVX1Oi+X6C4cUdPrEAygowrztIBWpoqXLWScwHLb9Y8txzHRhgWAtw+oxPkRisb6kuQIt4+BfIPWNJ76+5CvK9ZyzAzvQZSdNE+7XcthogeVgLbG7TP4ArYT5Gi/Q4s660ShdZtKr2I98CXAPd8xa40gD5xBmw6S4wrWgftLrqPhrV4SLu6a5eRp8TNqCQz3sCRis8Ak6aUd3IpuqzX9zlh7SAjAwB7f6Z+sBTFA9VWyWqvgbdMwEtPyTDCx10Cz4/Yepmy5j6NdaelTtBtDVBej9vczQWPEMT9YDoAS3NKlvDk4bR3GoanYH67oRWwPvbW/7ywzKgKIKSm9OmVSgX9HLZT49LvGcF1tae2dLvq2H70Sk+Jz7e47N/L+JVLdi6e2cTE8E9PD3llX5/TFrEO/7Q5NN2z6/I5UiGIGvQ0F4On4jYYYGTn7f3mwjOEGSECfHt4hcRL1GDtRnunpiDUhEmdPeEXoecKAZFF9w9MQelDKjwdrGciPeswM4WKV7GQhwUN6BqS8AX8bYSWLtQ7olGUDRFqLasfDy89oSTA5bcx0IcFDVgeN/NMJa2jTsbOBe0lySBhzSBqAHDdk+tjBcXmPmg1u9VSA2KGDCEc2czoiaO0K5fDJy8zFgEMSAcQkN2T+p4DxI83ftiHiERBixiqn5LS1rWI14ZwpW1ILo4gpsIGxB4Vi1U97QGRGsNN0ax9JpwHob453tgpUt/d4GMitTpQXAoHwPnum5hNQwQYoI7JOFVuUtZAk7tRGk9JcSA3r0IIzz3NOmvJkK8ExtMzAo1oLsPa0m/+86VPiCnPkjqi6XTrO0gLEW4Y+hJtBzKl2JaVof8nFjs5Kw+R5gBl5ZcKz7XaAWPaFZEL7D8xMyHzF08QlegN8tnai3LRgyKUbPELyAhmZ1s/GaFGhAehhonA1MPIpaanFfksNQgLl1ehRQx+CymWe8+l3U/dtTMgjkEvq3cLXTxxRJ05TktrIihxvVVo9971G1Ihe8LM4uV7W6ddZpvEzWfd0saVw0FJKeFmS2j32qblXKhaJnO33UQgTlohYrZ7RjMkzZY5vMcaKUFb3YiMcajXLPRaQ23LUu3VbSsl6+qm5LzpzuK9r8Vt7udhsQpTHi7aBRcOKn9VXiOgApRlNP5oysnve7wcTB4ft4e6/l5MGh3e51+wyD+jgUoLLE7uUHuTkSOkACcViaTG6uq/Cb4WQKLLeK+yC200fV7LFRdZ/C8c4QnE1zGwj10QYDnOB67cpkWmgQXA3iOO6e8dzqCT6T5WoM+dJ4m8OiZGSbCQ+cOSKw9bLtdLCLL24DKYVBBFF7ac9aTLcJDl96rvd2ipK9JHE9t8Y1FJIklP69/SAovymLShcusqCXo7/0PvjL3JB61XSQWMq+fAM4hT5ydwoP4l9iikvmmRcUYZxGqfikNV3fU0oulk8qxZSIKL3Qf/fKD8k1fsWWiqgiwFp4JfyUo32QPzGhRdUyoJjwnA0tMuW5xSwwYhgkzdwLj+Q2dr6LT4IjQCDrZfz0lA4uDp1qWeYXPm34DBuukZ2siOrvqDLBAFAPaqQL5i5LyOrsX0gWLZwMK+QIjtOkEC2/knAGX9+I1OCLkzvkwZb7+YNAFj8cEtNch6+/0Ijr/GRN7Zjh4ziu6LEIbUc2I53enSWIGMY0XVGKYVYauRacJlyRHm5nzu7Uky3SxwNI6ILqbcCHWmjke45ezWz6cXVIHUZQhovtBiJH+4+CZ86+3azE+nJ0XEv5LakKMROhitH/AaNqYs7bMnJ/9ut08TSftJceHs31zzXdDRCvHjDJuyhHoUm1UqWZsd3TEiyYzvik/p5YWfxFCpGM+WbCxEmnuDrQvSS3CAPmSP/g7tL6k5KN++dLJ2/lNXJV9VJkvGQs1brqlakJFvkTy5zzH5Y7UTKjGl1ybq/HGynHLNb98icTdvI03VvO9NKE8XyK5GXJKJ2TIEsryJeaWFGDlJAnl+NILWXh+CGX4bLq51CsiyRDy+RJvhM5RlU3I5EsnkvcL98wZNZdYiCy+RDJ2u7iYiWnLYNQ0Yr50MnH/dTH5TqRMsyYyooDP7nd/3L09071qhEgdu8D57DVnwy002/HkOCrGiPA5bOnNr2/ZcjPKNY0aCOnhS4/QTjd//QGGm1V1AjmN+ZvP5krYZMnY2ubd2R9jN48y1a2mjVmbzJjGfKfJ5Ona/ebtr7PzzNsMlfLKjs63jsfa51/+Z7D+6q/+6v9X/wV6yzIurDsJEgAAAABJRU5ErkJggg==;" parent="1" vertex="1">
                    <mxGeometry x="279.52" y="800" width="78.94" height="80" as="geometry"/>
                </mxCell>
                <mxCell id="6" value="&lt;div style=&quot;font-size: 13px&quot; align=&quot;left&quot;&gt;&lt;span style=&quot;font-weight: normal&quot;&gt;* localhost (local execution)&lt;/span&gt;&lt;/div&gt;&lt;div style=&quot;font-size: 13px&quot; align=&quot;left&quot;&gt;&lt;span style=&quot;font-weight: normal&quot;&gt;* Singularity/Apptainer&lt;/span&gt;&lt;/div&gt;&lt;div style=&quot;font-size: 13px&quot; align=&quot;left&quot;&gt;&lt;span style=&quot;font-weight: normal&quot;&gt;* AWS&lt;/span&gt;&lt;/div&gt;&lt;div style=&quot;font-size: 13px&quot; align=&quot;left&quot;&gt;&lt;span style=&quot;font-weight: 400&quot;&gt;* Docker Kubernetes&lt;/span&gt;&lt;/div&gt;&lt;div style=&quot;font-size: 13px&quot; align=&quot;left&quot;&gt;&lt;span style=&quot;font-weight: normal&quot;&gt;* Kubernetes&lt;/span&gt;&lt;/div&gt;&lt;div style=&quot;font-size: 13px&quot; align=&quot;left&quot;&gt;&lt;span style=&quot;font-weight: normal&quot;&gt;&lt;br&gt;&lt;/span&gt;&lt;/div&gt;" style="rounded=0;whiteSpace=wrap;html=1;align=left;verticalAlign=top;fontStyle=1;fontSize=13;" parent="1" vertex="1">
                    <mxGeometry x="1163" y="730" width="217" height="210" as="geometry"/>
                </mxCell>
                <mxCell id="8" value="" style="shape=image;verticalLabelPosition=bottom;labelBackgroundColor=#ffffff;verticalAlign=top;aspect=fixed;imageAspect=0;image=data:image/png,iVBORw0KGgoAAAANSUhEUgAAAOQAAADdCAMAAACc/C7aAAAAilBMVEUybOX///8uauUmZuQqaORRf+hVgugSX+MfY+QbYuQVYOMMXePz9v38/f+Ure/3+f7q7/yJpe68y/WjuPGwwvPl6/vF0vZ/nu29zPVKe+fb4/rS3PhnjeqovPI6cebn7ftfiOl6muyOqe9tkeubsvDX4PlEd+emuvLN2Pd0lus/dOYAWuMAVeKtwfPwQ0gNAAATzElEQVR4nO1dbXvqoLKNgZqE+NJa32utWmure+////euUZMwMBCGkN7z3HvmY6vICjAsZtaQqPf/wKL/7Q78hv0XZHB7nr5snp42h8ngV3/2N0HO+3nKeRxzlua7n1/84d8DObkIHlXGxWr+az/9WyCn2yyOgMXiMvmlH/8VkMN3nka6xVn07zd+/jdAjo8pBvFmKX8ddt+DzkEODhmLTRgLmOlx3HUfOgb5vEisEItJy8Sh4x2lU5Czfc7tCO/G8sVHl/3oEOT6M2cuEAvj+XnWXU86A/m2cxvFGubmq6u+dARy/pSQIN5gJv2OaFAnIJcnQYZ4h9kNDeoA5HQrGhyq2eKsCxoUHOR7pPI3KsxoGrpPYUEOX5mR3Lhbyr/D0qCQIAcj0bTzu8IMS4PCgXx+aSQ37haWBoUC+bFw3/ndjCWL50CdCwPySm689gy7BaNBIUB+bbqAeIf5uQ7QwfYgf/p0ckOBGSAa1BbkfOVHbggw29OgdiAnLciNu7WOBrUB+a8luSHAzLZtaJA3yOErGpzqDGYav/82yPEx+02IN7vSIE+25wVycPAnN0wIX9YQs2TkRYM8QH4sEm9yw6P39fqbeztkJl48aBAZ5OzcYufnq9uEG1/8HRbP92QaRAS5bkduxGO2PectGmFkGkQC+bNrR274S9nSuV07+e6tI5A+wSloaUVdpi19M0+eCDTIGeTk0p7cZBUNnWdt2+LitAwMchqE3IQEWbA9VxrkAnL4HofZ+cNN17vFWeREg5pBDo8hglM3Y1WXjqHCCClzoEFNIMMFp67GFmWz7bwrbFQ00iA7yMGLP7lBLF6VDW9DtsqSFztMK8h/3jTTYEnZchsygBgTVhdkA/kZ/EScP6Kpz0nghuNk7wdyF/4wJR587EsEbzr99AG57+DAWG6Uyy7afjFCMYKchJ5RhaWPWE2YbVKx3Ej0TCCHgV3O3dKHf3jtpHXjgJn+8dpJdKNkA6NOQGYmF2sC2UUnriPZKcj4RAPZgfsrLHusyfduomCJQShjAPndzaLhD545SDoJ2KaG+WoA+dlJ7J9VYYt1J0PJFzgaA8hwpLy2mEs/FnfyFLcUkLOwS7LQKoucr/bSVDmJRKQ88LNMcKKOgwy5WfNUpLvRcq2JAAZv/xYnYddQEi3D+QAOchFqMvEs27zbAojjn8MpnNaAjQggWwR/JeNpdp47pC8+3leBjq3xkzvIQQjeyvP+xDlBMxuxIGlAgf4iCrIxltbcH5YsiNH85cohrBs3uCqBBp1RkFbWxUV04Q3HaYe4C2KN6lGeXDZ2bSJ7dQbZt7TD+oUf+TlZngNPDp56qrcn294lNsXkmPVtP40enTGQQ8uS5P3HhxamKR3nny1ERsvICCEvR+nJPAYxcwVpY+eiWmkj/FNs21KSMjLM2bwSR9j6l2CeAANpZef1xw7YWOaHdhCvNlthVCSXyLelfyhHx0Da2PlF/pzWGcZJKTWTjfSIpZC3eYuLRTk6BtK2Y6XyRrRRHmm2C6RTfVMT7kKeIPaAphvIma0NOB12AGV+NHf7Yzn65JJD+ojOx7nZQY37YJYIEImz7nA5snchICdWds5AIxvps4kpWjaY7KM8ZTyRxnmQc5bllxcj7VtIjzoBC/3LOpAYR0dA2tl5HAH/dS49XZziPHw42SXp7dHHXP5zev9TJs6GZ/NaLUw4Q+Z2IoJxdATk1s5m4gTUA47y28d5jM692SJJ62cm/6dyHlzwI0qPlneUPAHCupeGyAnG0XWQzew8W8k+9Oc6Fa9AsH6+QSEFOLeDp5+gtVrzPMqu7EOeOdO48biCcHQdpEOmO8438rgNrjsrgnGtaEXivvxfeJrj+QJp4UdZ5m8nhyw8wtF1kE4xUZ5YPOnNhlrFHd/J/1f5MRMotwYtOsX42LcDSBs7lyw9WRVDk1R7VpA8b7SfSS/WFpfM7WCNcHQN5NBVlxFbtsXhJ/LQIRlBaJWtxd7eNW8LnLgB5Je7+ERsDB1aowFH6NxfsI+kfcMxdHBxj4/oHF0D+U6ItrCV+u2bTfGHzsA44UufM7SIckzRVeocXQNJip0nGB8/GCYWA5obk8glx+Tm/yghUp2jayBJ4UEs2nA2zfcUdN/Y71z3jr0DKUSqxdFVkFZ2rlnMtBPy2ugEU6CFMzLk9KKty3+0gL7G0VWQdnauGddX5fBs2M4gdTbIBjAPOyQmLTSOroIkxs7RjOAkRRsRYBv8QWc1izDHM6fFgTWOroJsYOeKpXhYftDHEAjg2tfIR+J8j7ZHzCRqHF0BSY2d430qzkn6w4KjjiTOuDApWInipkTh6Eo3aTpUYa4uWm81/5OAYKze78zEBHpUkYHK0aMWjRmFCDdbqNtlBv49VkYyzm0EfZiSdjZlF1JAOrLzuwm7DHyu+B8IsgfnDNvaUyckyY3K0SFIZ3ZemH0grzbegdGK4X9BrxOzZuzRM8pQqhwdgiSw8+vIQDeBOY136dgcK1uq1BLj2JyADZK0zgpHhyAp7FxxrdO/mBx8dqoGTHXsq2poxAbLD738BVsmye8rHB32lLIfwUNFjymBw9Iquq7y5vLUzBP0oqzPlMOnsicMgPJbECTFhUGlRTGbsjPW2zIanijz+UFI0xNGmoZPTHVsFJFYfAGtAZAfhCnBwYn57hdSEMWp/vdZrMxM+18/iyOOJ4juZ2RlFVOEDJCjA5AUdg7PFA8Pz05o9nX+lERIZOO42p7RsM7sMfgCnHEo+lHI0QFINCRhMEidyr/yKMAtD2/lMQbG9yilepCjA5An9wkB99t5tV5M2QKCLWswcCtYEboHYrwyyDHhUcFjvhxfNOZ9HO1b6gUcEMpWCSaaDJLCzsHKHshPJ85bXRp0AM4PUJc1wb8KeZOVQRKeFKR0ihQvx0+ZTqZEiOB5ghB/AhxdBklg5xxwzZ3yxcygO220oVqLwsAOQ+AqwGfIIAmzASxJXRKTmsLOdhsj6iD5/wTWGac4SAo7B24PCdewlYd64DnSRwqEE94oi1LqoQSSoH6HmiBsLfMtecNcY6cpQLXVg7bN5C9KIAk1jTDVqC7JO0pGFBDiITlItQkVifIXZVm4XwsmWU2ckGjBEgl9RSp/1fN9RoulOHoNksLOQXrAFEqLmb4uZ+ub6YM8+2P4KSAcOlDoQL2T1yC92TkeJo7qeh7po3+zwsQfbZCN3QcujlI0I3H0GiSFnYM92vh0mBq4ea4+ydXoo3EigvPEnABSooQ1SAI7h8FwI1Fi6vHqUiHhapDbOJKpHDegHJwljl6BpLDzKJH3B1NeLf6jnPk/JSCpQopmfwzPGDwpUr1KzdErkMaVhZmQz8b41hOzXIl3HEEPE4XGzxM86AgIJCldUHP0CiQp5AdcHsIoeZpvRwobUP3nH+X/g9enBCn54XLgaEAZyZqjVyDRHd0IUu6d6jN4luz+6ZuEuh4y7ROF0pCpdzcApk3KVNbfrECS8kZGkJwlkUn5CA/23MDhv44rMKAQJCnCX/WyBEk5kCogq+nKM7F7N5M56EA111vbYHKuBxSApJBXaYstQZL0FVEmj9XN8RRDuJhbKyVgAj2z6/G/Rqu7vtJ/TdYcvQRJu3FEyHv5gl39TP+1kY/DaFveeBZ7npwzwZi3d60ZdgmSJhUAZGCULpZOxS5yC2r6x2Bvo60cSyHWdZYc/QGSws4jRePgXLAkVXwwa8oVmPz8iPXkJUd/gCQqW1K/sOPz/eab4m4Zvxg0hbtGNe99gKSw8wg7XzhacUGjX7XazYil+yVHf4CksPMrxsz/tTTjke+1l73iPlkSypKj30HS9h/RpFru0F5JPX1sdXeQBHbOWe4bVQ1iiz+EmvbsTQLZyM5jzhlLMyH45hikHMvfPqaLVSpEljLGmjzJg6PfQdrZORfZ6nNxOE7nM5LHmM2nbl74+f11+kVqerCeT1+Ph01kr/h+cMI7SOtyTs5vVFfxMX/dr9IkSwV3eJ3LNE9ZKpJoM5rQoF5tdrCWGPAapJWd01Jxzz/viwIeeyycOGvs9roMCvBiQRRQ15SHag2r3zn6DaSNnZtuRkHhPYkaXvl9RIgMTVGfFlDz6NMdqo3I3Ht/A2ll5y6/M33p8zxD3Z7pZpXa0FzV7baQy6fTZmXp/P3XbxgsGDkqW1HtmBjduuXc+LAXs+/QbzDDRteW0duWIG2KAx3kz6jPNusx2Egscqmk0fO8Wb4Mzm/Lj2WUbPfaGzpte8MtI16AtN4iB7V48+KIx6+bSv4XBMGNE75RZdizcEqo/pj9FUVHi8PrVMY5tjGZG0cvQFozDNJ0+1qkWX1YAjnztWk0UgeWa/R7UMdTMxaeJpva5++tV0gcHyDtWepHXfhgulIWHuioacpkDi7SFJ5SDtYgb8fF9h6LGJytm/xtuRVdfWq4yIPtRy+nXI39QuXbGl/XXPMck8VC23gNB70EDKS2HzLBPxdNLyu5BQUdQBa3PyHOU4kp4tNBKw7rC84TNRqJV9xAwRG27IuO2btegySkNmXLAQA0xqTldV5ucytTVYPobR45cG2et6VW05UYFqi+D7f5I7I2FHFz7+MxqXMlFbREVqWS+KPkX+VWSsdDDPBUptwthuwEar1mJeRVJyzymGPgsmjH+tqqLWTgeTmw8qxnWjNqPVG97as1ifqBFnod79snb+Hd20ZASvbILcCY27c66RIlJldnQ9Swq7biUvgAfQfyTthuIH88h1LlfMqFJ2p5xkR6CGpxkOKc1Wo+C7+12t15uUQGLG0oxPQC2hFKugN+F/7vB5aQKJoCWlVnbY9RuP/WwPM+NZWZPssPPFYqUmGRTqqE0OVyP00CRCo8koyPJZDFDRRelilHYpnDKhHoMXyQsYD5EzlurN6ePPFckeVEK2fN0bMdtUpUukcGVtlpy0rxzeP6i2rt9phUjSb1rTwcVEvj029pa/W+VU5G4Qof2lxRnk8VBdHq0z0ZWS0wqdf/xbMpVaZcih0hK0O4reJ8S4qvFsn0pn6TTKKUNchnz/eUJGrK+C5bVXbCL2TR55AR3M4JPFMjCd6eFdPWee+WqRqOGO4ytdwALXdQnkOxjbKTmtMb0qqsK5Mnkrxd0ZIplXE9wnHMObwKcIk2ncEHwbDXKPgekeRIKtiTz55MX1erfHF4mjJ9FXzooGq4euXZjGyQFcKfObX1Y5UNwbT7NnQVMoJnPf387XmKhOdtCHLgSREzeyWIcaOLU7uiwvMtEHEMm1UoJOYEXSyxojQfeDVJLLClZ2+U3Uu7MeLd02HbUNqC16ab9gub+D5xlU1oqQ5KVa1swpzzsJEpk8Tuav98tzSt7lTP56w8Gb+xqmewM112XlxAuDKl9pCrQZ2M6eW4yOV8vnegs5Opv8P5YSVEyjiPb2DjIjufZsnqxazGO3ueGOLI5XK+3tpUvdBknFnkBMP15LjvX1iS5zm79PejyZcluD5Y+V6MniMaPyz9OPW+Bt12JxvF1Bs1CD3A7nRAc6wL71cTpE8h3lzfdCmm2fANG08kW+6nbjAu/F+n/LAv/ZYb519H7wAwgBy3eAFDtiK/mFa2wcL/rTDxFl/mBkmAIUnlZHqNEsW83V4R/6K9w8ebbRinjLP1vQfS+PYwo7jD84xTWDuQ3j+bGV27uUe2VwBYLW/lYPWMiqMhp9pmkEOHF2ZgFtf3Ac+PrniXdaDIN85teEmRHaRvBEmqmt+mSd9SKPKw8XyfiroffonIWFiep20B+R3nqqzltKD6PE22L0vjeWr8c+yLjMcRX5VBGb/XzuS2MhOrlxh5RCmrnOSoKlK+AmW7w/TnQ2Ljw8HX8njeFlK8+4fi6kTqk4q0i6ntrtAj21UmiGHEPL4pIHO2Pa36/afTJUqS4lQCvllmM4f0RcksrxFtBEl3PtVNiejNm/HtlBXjjVahkCV1wvKLCYALyN4HkWNVTGDssbKq0lXqBMoanHjTzk3M6VUJdJ93rFXS2gHttcJWp+MCsncklQFXcWuf3HWdoiGdaBtviW8Gqb35xGL1+vfbB2qCTSgCZM2KXAei6ZxxiVm1R9CuMqz6W42J+3t3kUyMD8hn1xUiyT5pZVGlSWku5zWNvfrBA6Sz86n1V76vDZeEP47zNXcpxXE6F7kJCiT9la+QTUpquvGexCnY4nb4cxIUSEWVvq+UleLpTm8eZ3un7juecF0EBXUptv+rHev56gISuYW9Dchnh5+sfaOnbDOSs1wuN1hod8G0A+kkKCiPrcQCaWCV1Nlh6qiit9Yge9/NzofdE1sfniGFu/E7SgcKol6REgCki6CAPU3Wbwca8dRMLOY/79vmgURy+O1BuggK4jTLWr/C9nrydLhPUZO3hwE56Oat7n4Wc8LLSilBUl9BQRemygKCgey9h33beAtDX4ITBqS3oCC0pU0X4LcB6S0oCGuKFik0SF81U1DDZAEhQf5HOB/0Db4hQbYQFATDSHI6XiBbCArCmK5F6gCkd/1CGPPJ8XqAHLtfMBLeyE7HE6S5gPkXMJKdji/IFoKCtmaUBYQH2UZQ0MoaxMNhQfoLClqZRTfaBUhfQUErs8kCugDpXZLSBqOwqJw7AemtD/c3P6fTCmTv4Fn25Gst7lhrIZ/yLZ/1swZZQFcgfauovKxJFtAVyN7HL0ZD0jZatlZqvy9/aSrNiO85CAqyN4t+hRSwre/mEQJkb7jIO4fJc1rYKjjI62DuC+kYj12N04wJsWg3jCFAFqUto8/+k6P1SbY7H5s0Oi4WAOR/vv0X5P8V+x/criFW+sDbfgAAAABJRU5ErkJggg==;" parent="1" vertex="1">
                    <mxGeometry x="727.9399999999999" y="800" width="82.54" height="80" as="geometry"/>
                </mxCell>
                <mxCell id="9" value="" style="points=[];aspect=fixed;html=1;align=center;shadow=0;dashed=0;image;image=img/lib/allied_telesis/storage/Datacenter_Server_Half_Rack_ToR.svg;" parent="1" vertex="1">
                    <mxGeometry x="179.52" y="800" width="61.57" height="80" as="geometry"/>
                </mxCell>
                <mxCell id="11" value="" style="endArrow=none;html=1;sketch=0;strokeWidth=2;fillColor=#d80073;strokeColor=#A50040;startArrow=classic;startFill=1;endFill=0;entryX=0.5;entryY=1;entryDx=0;entryDy=0;" parent="1" target="9acBPp0Nrx-jCgAz3xqB-15" edge="1">
                    <mxGeometry width="50" height="50" relative="1" as="geometry">
                        <mxPoint x="210" y="800" as="sourcePoint"/>
                        <mxPoint x="241.08764705882365" y="1089.9999999999998" as="targetPoint"/>
                    </mxGeometry>
                </mxCell>
                <mxCell id="12" value="" style="endArrow=none;html=1;sketch=0;strokeWidth=2;fillColor=#d80073;strokeColor=#A50040;startArrow=classic;startFill=1;endFill=0;entryX=0.5;entryY=1;entryDx=0;entryDy=0;" parent="1" edge="1">
                    <mxGeometry width="50" height="50" relative="1" as="geometry">
                        <mxPoint x="320" y="800" as="sourcePoint"/>
                        <mxPoint x="385" y="709.9999999999998" as="targetPoint"/>
                    </mxGeometry>
                </mxCell>
                <mxCell id="13" value="" style="endArrow=none;html=1;sketch=0;strokeWidth=2;fillColor=#d80073;strokeColor=#A50040;startArrow=classic;startFill=1;endFill=0;entryX=0.5;entryY=1;entryDx=0;entryDy=0;exitX=0.5;exitY=0;exitDx=0;exitDy=0;" parent="1" source="3" edge="1">
                    <mxGeometry width="50" height="50" relative="1" as="geometry">
                        <mxPoint x="691.0699999999999" y="800" as="sourcePoint"/>
                        <mxPoint x="701.0699999999999" y="709.9999999999998" as="targetPoint"/>
                    </mxGeometry>
                </mxCell>
                <mxCell id="18" value="Reusable" style="rounded=0;whiteSpace=wrap;html=1;fontSize=13;align=center;verticalAlign=top;fontStyle=1" parent="1" vertex="1">
                    <mxGeometry x="1858" y="-280" width="210" height="30" as="geometry"/>
                </mxCell>
                <mxCell id="19" value="&lt;div&gt;* dev-branch macpepdb-web&lt;/div&gt;&lt;div&gt;* dev-branch max-decoy-web&lt;br&gt;&lt;/div&gt;" style="rounded=0;whiteSpace=wrap;html=1;fontSize=13;align=left;verticalAlign=top;fontStyle=0" parent="1" vertex="1">
                    <mxGeometry x="1858" y="-250" width="210" height="260" as="geometry"/>
                </mxCell>
                <mxCell id="20" value="* Docker container" style="rounded=0;whiteSpace=wrap;html=1;fontSize=13;align=left;verticalAlign=top;fontStyle=0" parent="1" vertex="1">
                    <mxGeometry x="1858" y="10" width="210" height="120" as="geometry"/>
                </mxCell>
                <mxCell id="21" value="* dev-branch max-decoy-worker for the python script" style="rounded=0;whiteSpace=wrap;html=1;fontSize=13;align=left;verticalAlign=top;fontStyle=0" parent="1" vertex="1">
                    <mxGeometry x="1858" y="130" width="210" height="200" as="geometry"/>
                </mxCell>
                <mxCell id="22" value="&lt;div&gt;&lt;b&gt;Technologies&lt;/b&gt;&lt;br&gt;&lt;/div&gt;" style="rounded=0;whiteSpace=wrap;html=1;fontSize=13;align=center;verticalAlign=top;" parent="1" vertex="1">
                    <mxGeometry x="1163" y="120" width="217" height="30" as="geometry"/>
                </mxCell>
                <mxCell id="23" value="&lt;div&gt;* NuxtJS - Reactive/Async website based on VueJS&lt;/div&gt;&lt;div&gt;* Flask - Python webframework&lt;/div&gt;&lt;blockquote&gt;&lt;div&gt;* pika - RabbitMQ client&lt;/div&gt;&lt;div&gt;* psycopg2 - PostgresSQL client&lt;br&gt;&lt;/div&gt;&lt;/blockquote&gt;" style="rounded=0;whiteSpace=wrap;html=1;fontSize=13;align=left;verticalAlign=top;fontStyle=0" parent="1" vertex="1">
                    <mxGeometry x="1163" y="150" width="217" height="260" as="geometry"/>
                </mxCell>
                <mxCell id="24" value="&lt;div&gt;* PostgreSQL - SQL-Server&lt;br&gt;&lt;/div&gt;&lt;div&gt;* RabbitMQ - Queue for each executor&lt;br&gt;&lt;/div&gt;&lt;div&gt;* GlusterFS - Distributed Filesystem&lt;/div&gt;&lt;div&gt;* NFS/Samba/WebDAV - Network share&lt;/div&gt;" style="rounded=0;whiteSpace=wrap;html=1;fontSize=13;align=left;verticalAlign=top;fontStyle=0" parent="1" vertex="1">
                    <mxGeometry x="1163" y="410" width="217" height="120" as="geometry"/>
                </mxCell>
                <mxCell id="25" value="&lt;div&gt;* Python module to fetch job/workflow from message queue and execute it with Nextflow&lt;/div&gt;&lt;div&gt;&lt;br&gt;&lt;/div&gt;&lt;div&gt;&lt;br&gt;&lt;/div&gt;" style="rounded=0;whiteSpace=wrap;html=1;fontSize=13;align=left;verticalAlign=top;fontStyle=0" parent="1" vertex="1">
                    <mxGeometry x="1163" y="530" width="217" height="200" as="geometry"/>
                </mxCell>
                <mxCell id="26" value="&lt;div&gt;* Nextflow execution&lt;/div&gt;" style="rounded=0;whiteSpace=wrap;html=1;fontSize=13;align=left;verticalAlign=top;fontStyle=0" parent="1" vertex="1">
                    <mxGeometry x="950" y="730" width="213" height="210" as="geometry"/>
                </mxCell>
            </root>
        </mxGraphModel>
    </diagram>
</mxfile>